<?xml version="1.0" encoding="UTF-8" standalone="no"?>
<!-- Created with Inkscape (http://www.inkscape.org/) -->

<svg
   xmlns:dc="http://purl.org/dc/elements/1.1/"
   xmlns:cc="http://creativecommons.org/ns#"
   xmlns:rdf="http://www.w3.org/1999/02/22-rdf-syntax-ns#"
   xmlns:svg="http://www.w3.org/2000/svg"
   xmlns="http://www.w3.org/2000/svg"
   xmlns:xlink="http://www.w3.org/1999/xlink"
   xmlns:sodipodi="http://sodipodi.sourceforge.net/DTD/sodipodi-0.dtd"
   xmlns:inkscape="http://www.inkscape.org/namespaces/inkscape"
   width="57.718742mm"
   height="58.916668mm"
   viewBox="0 0 57.718741 58.916668"
   version="1.1"
   id="svg3073"
   inkscape:version="0.92+devel unknown"
   sodipodi:docname="roundabout.svg">
  <defs
     id="defs3067">
    <clipPath
       clipPathUnits="userSpaceOnUse"
       id="clipPath1402">
      <path
         sodipodi:nodetypes="cscccccc"
         inkscape:connector-curvature="0"
         id="path1404"
         d="m 165.44141,191.32227 c -14.34615,0.15172 -27.77809,6.21988 -32.82813,26.6582 -1.28189,5.188 0.0556,9.80469 2.65072,13.26106 2.59516,3.45637 3.16827,9.305 6.67741,11.64519 10.98185,5.88964 24.60554,6.46728 32.23242,-3.33594 3.17832,-4.21102 4.44531,-15.18945 4.44531,-15.18945 -0.19611,-10.78688 1.00327,-19.32348 -3.15982,-26.48702 -2.3322,-3.85157 -3.58284,-6.62014 -10.01791,-6.55204 z"
         style="opacity:1;fill:#b5582d;fill-opacity:1;stroke:none;stroke-width:1.53018379px;stroke-linecap:butt;stroke-linejoin:miter;stroke-opacity:1" />
    </clipPath>
    <filter
       inkscape:collect="always"
       style="color-interpolation-filters:sRGB"
       id="filter6797"
       x="-0.036101401"
       width="1.0722028"
       y="-0.03589917"
       height="1.0717983">
      <feGaussianBlur
         inkscape:collect="always"
         stdDeviation="2.7701972"
         id="feGaussianBlur6799" />
    </filter>
    <filter
       inkscape:collect="always"
       style="color-interpolation-filters:sRGB"
       id="filter6964"
       x="-0.047383718"
       width="1.0947675"
       y="-0.36965463"
       height="1.7393093">
      <feGaussianBlur
         inkscape:collect="always"
         stdDeviation="2.5473812"
         id="feGaussianBlur6966" />
    </filter>
    <clipPath
       clipPathUnits="userSpaceOnUse"
       id="clipPath6870">
      <path
         inkscape:connector-curvature="0"
         id="path6872"
         d="m 632.34548,497.62018 -123.44922,95.59961 18.67578,1.7871 c 0,0 0.12839,-0.0624 0.13672,-0.0664 l 26.2793,2.875 c 0,0 0.27745,-0.14992 0.29296,-0.1582 l 33.86329,-0.29688 c 2.50977,0.0903 12.05012,0.42056 17.16406,0.21289 2.69179,-0.29716 5.69612,-1.30433 7.80273,-2.8418 1.93112,-1.84657 3.87494,-4.13169 4.76563,-6.77343 1.59265,-4.78221 2.38429,-14.12193 2.50781,-15.66992 l 5.68945,-30.5625 c 0.004,-0.005 0.14649,-0.1543 0.14649,-0.1543 l 3.88281,-27.58203 c 10e-4,-0.002 0.043,-0.0586 0.043,-0.0586 z"
         style="fill:#008000;fill-opacity:1;stroke:none;stroke-width:0.36372256px;stroke-linecap:butt;stroke-linejoin:miter;stroke-opacity:1" />
    </clipPath>
    <filter
       inkscape:collect="always"
       style="color-interpolation-filters:sRGB"
       id="filter6864"
       x="-0.51541162"
       width="2.0308232"
       y="-0.091909096"
       height="1.1838182">
      <feGaussianBlur
         inkscape:collect="always"
         stdDeviation="4.2565591"
         id="feGaussianBlur6866" />
    </filter>
    <linearGradient
       inkscape:collect="always"
       xlink:href="#linearGradient6387"
       id="linearGradient6389"
       x1="205.09486"
       y1="509.37494"
       x2="342.65485"
       y2="392.78564"
       gradientUnits="userSpaceOnUse"
       gradientTransform="matrix(0.94676713,-0.03302142,0.03302142,0.94676713,-130.13426,49.980724)" />
    <linearGradient
       inkscape:collect="always"
       id="linearGradient6387">
      <stop
         style="stop-color:#000000;stop-opacity:1;"
         offset="0"
         id="stop6383" />
      <stop
         style="stop-color:#000000;stop-opacity:0;"
         offset="1"
         id="stop6385" />
    </linearGradient>
    <linearGradient
       inkscape:collect="always"
       xlink:href="#linearGradient6280"
       id="linearGradient6282"
       x1="327.98474"
       y1="379.10037"
       x2="247.14342"
       y2="438.384"
       gradientUnits="userSpaceOnUse"
       gradientTransform="matrix(0.94676713,-0.03302142,0.03302142,0.94676713,-130.13426,49.980724)" />
    <linearGradient
       inkscape:collect="always"
       id="linearGradient6280">
      <stop
         style="stop-color:#cd0000;stop-opacity:1"
         offset="0"
         id="stop6276" />
      <stop
         style="stop-color:#7d0303;stop-opacity:1"
         offset="1"
         id="stop6278" />
    </linearGradient>
    <radialGradient
       inkscape:collect="always"
       xlink:href="#linearGradient6212"
       id="radialGradient6214"
       cx="158.18886"
       cy="385.73526"
       fx="158.18886"
       fy="385.73526"
       r="68.532532"
       gradientTransform="matrix(0.26970717,0.31095902,-0.89089703,0.7727106,456.73379,37.545457)"
       gradientUnits="userSpaceOnUse" />
    <linearGradient
       inkscape:collect="always"
       id="linearGradient6212">
      <stop
         id="stop6210"
         offset="0"
         style="stop-color:#d15400;stop-opacity:1" />
      <stop
         style="stop-color:#ff6b08;stop-opacity:1"
         offset="0.92417592"
         id="stop6218" />
      <stop
         id="stop6208"
         offset="1"
         style="stop-color:#ff6b08;stop-opacity:1;" />
    </linearGradient>
    <linearGradient
       inkscape:collect="always"
       xlink:href="#linearGradient6226"
       id="linearGradient6228"
       x1="222.18819"
       y1="430.87405"
       x2="311.68546"
       y2="357.61755"
       gradientUnits="userSpaceOnUse"
       gradientTransform="matrix(0.94676713,-0.03302142,0.03302142,0.94676713,-130.13426,49.980724)" />
    <linearGradient
       inkscape:collect="always"
       id="linearGradient6226">
      <stop
         style="stop-color:#d95801;stop-opacity:1;"
         offset="0"
         id="stop6222" />
      <stop
         style="stop-color:#d95801;stop-opacity:0;"
         offset="1"
         id="stop6224" />
    </linearGradient>
    <radialGradient
       inkscape:collect="always"
       xlink:href="#linearGradient6200"
       id="radialGradient6202"
       cx="141.1674"
       cy="384.19403"
       fx="141.1674"
       fy="384.19403"
       r="54.536098"
       gradientTransform="matrix(0.33080794,0.37075309,-0.83672311,0.7465741,421.7302,37.860598)"
       gradientUnits="userSpaceOnUse" />
    <linearGradient
       inkscape:collect="always"
       id="linearGradient6200">
      <stop
         id="stop6198"
         offset="0"
         style="stop-color:#a68d01;stop-opacity:1" />
      <stop
         style="stop-color:#feda11;stop-opacity:1"
         offset="0.85524279"
         id="stop6206" />
      <stop
         id="stop6196"
         offset="1"
         style="stop-color:#feda11;stop-opacity:1;" />
    </linearGradient>
    <linearGradient
       inkscape:collect="always"
       xlink:href="#linearGradient6236"
       id="linearGradient6238"
       x1="239.8112"
       y1="407.03113"
       x2="295.79019"
       y2="366.25632"
       gradientUnits="userSpaceOnUse"
       gradientTransform="matrix(0.94676713,-0.03302142,0.03302142,0.94676713,-130.13426,49.980724)" />
    <linearGradient
       inkscape:collect="always"
       id="linearGradient6236">
      <stop
         style="stop-color:#b29703;stop-opacity:1;"
         offset="0"
         id="stop6232" />
      <stop
         style="stop-color:#b29703;stop-opacity:0;"
         offset="1"
         id="stop6234" />
    </linearGradient>
    <radialGradient
       inkscape:collect="always"
       xlink:href="#linearGradient6188"
       id="radialGradient6190"
       cx="141.2601"
       cy="385.44669"
       fx="141.2601"
       fy="385.44669"
       r="34.943878"
       gradientTransform="matrix(0.27142523,0.31600833,-0.90701515,0.7790516,458.31205,31.941322)"
       gradientUnits="userSpaceOnUse" />
    <linearGradient
       inkscape:collect="always"
       id="linearGradient6188">
      <stop
         id="stop6186"
         offset="0"
         style="stop-color:#338200;stop-opacity:1" />
      <stop
         style="stop-color:#57db00;stop-opacity:1"
         offset="0.88259286"
         id="stop6194" />
      <stop
         id="stop6184"
         offset="1"
         style="stop-color:#57db00;stop-opacity:1;" />
    </linearGradient>
    <linearGradient
       inkscape:collect="always"
       xlink:href="#linearGradient6246"
       id="linearGradient6248"
       x1="254.84259"
       y1="384.29733"
       x2="285.2543"
       y2="361.1998"
       gradientUnits="userSpaceOnUse"
       gradientTransform="matrix(0.94676713,-0.03302142,0.03302142,0.94676713,-130.13426,49.980724)" />
    <linearGradient
       inkscape:collect="always"
       id="linearGradient6246">
      <stop
         style="stop-color:#388e00;stop-opacity:1;"
         offset="0"
         id="stop6242" />
      <stop
         style="stop-color:#388e00;stop-opacity:0;"
         offset="1"
         id="stop6244" />
    </linearGradient>
    <radialGradient
       inkscape:collect="always"
       xlink:href="#linearGradient6176"
       id="radialGradient6178"
       cx="131.87708"
       cy="384.73346"
       fx="131.87708"
       fy="384.73346"
       r="18.969749"
       gradientTransform="matrix(0.37532472,0.40372197,-0.86816407,0.80709855,428.26977,9.2793378)"
       gradientUnits="userSpaceOnUse" />
    <linearGradient
       inkscape:collect="always"
       id="linearGradient6176">
      <stop
         id="stop6174"
         offset="0"
         style="stop-color:#1e4b79;stop-opacity:1" />
      <stop
         style="stop-color:#3581cd;stop-opacity:1"
         offset="0.88548106"
         id="stop6182" />
      <stop
         id="stop6172"
         offset="1"
         style="stop-color:#3682cf;stop-opacity:1;" />
    </linearGradient>
    <linearGradient
       inkscape:collect="always"
       xlink:href="#linearGradient6256"
       id="linearGradient6258"
       x1="264.46655"
       y1="366.01178"
       x2="282.5596"
       y2="353.11569"
       gradientUnits="userSpaceOnUse"
       gradientTransform="matrix(0.94676713,-0.03302142,0.03302142,0.94676713,-130.13426,49.980724)" />
    <linearGradient
       inkscape:collect="always"
       id="linearGradient6256">
      <stop
         style="stop-color:#23568b;stop-opacity:1;"
         offset="0"
         id="stop6252" />
      <stop
         style="stop-color:#23568b;stop-opacity:0;"
         offset="1"
         id="stop6254" />
    </linearGradient>
    <radialGradient
       inkscape:collect="always"
       xlink:href="#linearGradient6160"
       id="radialGradient6162"
       cx="-136.66655"
       cy="381.58823"
       fx="-136.66655"
       fy="381.58823"
       r="13.914373"
       gradientTransform="matrix(0.94734281,0,0,0.30891611,-5.4499349,257.58543)"
       gradientUnits="userSpaceOnUse" />
    <linearGradient
       inkscape:collect="always"
       id="linearGradient6160">
      <stop
         id="stop6158"
         offset="0"
         style="stop-color:#00112b;stop-opacity:1" />
      <stop
         style="stop-color:#00112b;stop-opacity:1"
         offset="0.293672"
         id="stop6168" />
      <stop
         id="stop6170"
         offset="0.60911208"
         style="stop-color:#0d3787;stop-opacity:1" />
      <stop
         style="stop-color:#0c3684;stop-opacity:1"
         offset="0.87246054"
         id="stop6166" />
      <stop
         id="stop6156"
         offset="1"
         style="stop-color:#0d3889;stop-opacity:1;" />
    </linearGradient>
    <linearGradient
       inkscape:collect="always"
       xlink:href="#linearGradient6272"
       id="linearGradient6274"
       x1="-15.61307"
       y1="446.72925"
       x2="-0.39075255"
       y2="446.0769"
       gradientUnits="userSpaceOnUse"
       gradientTransform="matrix(0.94734281,0,0,0.94734281,-131.06852,-47.476759)" />
    <linearGradient
       inkscape:collect="always"
       id="linearGradient6272">
      <stop
         style="stop-color:#082965;stop-opacity:1;"
         offset="0"
         id="stop6268" />
      <stop
         style="stop-color:#082965;stop-opacity:0;"
         offset="1"
         id="stop6270" />
    </linearGradient>
    <linearGradient
       inkscape:collect="always"
       xlink:href="#linearGradient6293"
       id="linearGradient6295"
       x1="241.20959"
       y1="410.96378"
       x2="342.94916"
       y2="328.20413"
       gradientUnits="userSpaceOnUse"
       gradientTransform="matrix(0.94676713,-0.03302142,0.03302142,0.94676713,-130.13426,49.980724)" />
    <linearGradient
       inkscape:collect="always"
       id="linearGradient6293">
      <stop
         style="stop-color:#957e03;stop-opacity:1"
         offset="0"
         id="stop6289" />
      <stop
         id="stop6297"
         offset="0.57465672"
         style="stop-color:#f5dd58;stop-opacity:1;" />
      <stop
         style="stop-color:#f6e16d;stop-opacity:1;"
         offset="0.85222208"
         id="stop6299" />
      <stop
         style="stop-color:#ffffff;stop-opacity:1"
         offset="1"
         id="stop6291" />
    </linearGradient>
    <linearGradient
       inkscape:collect="always"
       xlink:href="#linearGradient6310"
       id="linearGradient6312"
       x1="253.13951"
       y1="387.43921"
       x2="318.08429"
       y2="330.36362"
       gradientUnits="userSpaceOnUse"
       gradientTransform="matrix(0.94676713,-0.03302142,0.03302142,0.94676713,-130.13426,49.980724)" />
    <linearGradient
       inkscape:collect="always"
       id="linearGradient6310">
      <stop
         style="stop-color:#2f7800;stop-opacity:1"
         offset="0"
         id="stop6306" />
      <stop
         id="stop6314"
         offset="0.7121132"
         style="stop-color:#55d600;stop-opacity:1;" />
      <stop
         style="stop-color:#ffffff;stop-opacity:1"
         offset="1"
         id="stop6308" />
    </linearGradient>
    <linearGradient
       inkscape:collect="always"
       xlink:href="#linearGradient6327"
       id="linearGradient6321"
       x1="266.15408"
       y1="365.05045"
       x2="299.07812"
       y2="337.43671"
       gradientUnits="userSpaceOnUse"
       gradientTransform="matrix(0.94676713,-0.03302142,0.03302142,0.94676713,-130.13426,49.980724)" />
    <linearGradient
       id="linearGradient6327"
       inkscape:collect="always">
      <stop
         id="stop6323"
         offset="0"
         style="stop-color:#23568b;stop-opacity:1;" />
      <stop
         style="stop-color:#23568b;stop-opacity:1"
         offset="0.45459491"
         id="stop6329" />
      <stop
         id="stop6325"
         offset="1"
         style="stop-color:#ffffff;stop-opacity:1" />
    </linearGradient>
    <linearGradient
       inkscape:collect="always"
       xlink:href="#linearGradient6340"
       id="linearGradient6342"
       x1="277.48138"
       y1="355.28613"
       x2="290.78757"
       y2="339.51523"
       gradientUnits="userSpaceOnUse"
       gradientTransform="matrix(0.94676713,-0.03302142,0.03302142,0.94676713,-130.13426,49.980724)" />
    <linearGradient
       inkscape:collect="always"
       id="linearGradient6340">
      <stop
         style="stop-color:#082a68;stop-opacity:1;"
         offset="0"
         id="stop6336" />
      <stop
         id="stop6344"
         offset="0.43605334"
         style="stop-color:#082a68;stop-opacity:1" />
      <stop
         style="stop-color:#ffffff;stop-opacity:1"
         offset="1"
         id="stop6338" />
    </linearGradient>
    <linearGradient
       inkscape:collect="always"
       xlink:href="#linearGradient6355"
       id="linearGradient6357"
       x1="231.74881"
       y1="433.17392"
       x2="361.55865"
       y2="312.71432"
       gradientUnits="userSpaceOnUse"
       gradientTransform="matrix(0.94676713,-0.03302142,0.03302142,0.94676713,-130.13426,49.980724)" />
    <linearGradient
       inkscape:collect="always"
       id="linearGradient6355">
      <stop
         style="stop-color:#a94602;stop-opacity:1"
         offset="0"
         id="stop6351" />
      <stop
         id="stop6359"
         offset="0.65449399"
         style="stop-color:#ff6b08;stop-opacity:1" />
      <stop
         style="stop-color:#ffffff;stop-opacity:1"
         offset="1"
         id="stop6353" />
    </linearGradient>
    <clipPath
       clipPathUnits="userSpaceOnUse"
       id="clipPath6486">
      <path
         style="opacity:1;fill:url(#linearGradient6490);fill-opacity:1;stroke:none;stroke-width:2.71706223;stroke-miterlimit:4;stroke-dasharray:none;stroke-opacity:1"
         d="m 605.08546,475.76539 c 6.67607,10.56158 -12.79452,30.8701 -43.01578,55.90757 -30.22128,25.0375 -58.30695,37.65564 -64.00645,31.19824 -4.73906,-5.36928 13.76082,-30.95831 43.98211,-55.99584 30.22125,-25.03749 59.29737,-37.03109 63.04012,-31.10997 z"
         id="path6488"
         inkscape:connector-curvature="0"
         sodipodi:nodetypes="sssss" />
    </clipPath>
    <filter
       inkscape:collect="always"
       style="color-interpolation-filters:sRGB"
       id="filter6478"
       x="-0.28940076"
       width="1.5788015"
       y="-0.17229962"
       height="1.3445992">
      <feGaussianBlur
         inkscape:collect="always"
         stdDeviation="2.3389731"
         id="feGaussianBlur6480" />
    </filter>
    <clipPath
       clipPathUnits="userSpaceOnUse"
       id="clipPath6528">
      <path
         sodipodi:nodetypes="sssss"
         inkscape:connector-curvature="0"
         id="path6530"
         d="m 606.27176,477.17328 c 4.70407,8.76487 -11.90688,23.79074 -37.32272,41.96376 -25.41585,18.17303 -48.43314,26.60442 -52.5939,21.15401 -3.45965,-4.53196 12.67922,-23.80612 38.09506,-41.97916 25.41583,-18.17305 49.18433,-26.05244 51.82156,-21.13861 z"
         style="opacity:1;fill:url(#linearGradient6532);fill-opacity:1;stroke:none;stroke-width:2.16314507;stroke-miterlimit:4;stroke-dasharray:none;stroke-opacity:1" />
    </clipPath>
    <clipPath
       clipPathUnits="userSpaceOnUse"
       id="clipPath6538">
      <path
         sodipodi:nodetypes="sssss"
         inkscape:connector-curvature="0"
         id="path6540"
         d="m 606.45515,483.15867 c 5.72023,16.59527 -27.45551,38.0805 -76.85674,62.56257 -49.40131,24.48212 -91.87498,32.6722 -97.58425,22.00375 -4.7472,-8.87073 28.80521,-37.8893 78.20654,-62.37147 49.40122,-24.48209 93.02761,-31.49863 96.23445,-22.19485 z"
         style="opacity:1;fill:url(#linearGradient6542);fill-opacity:1;stroke:none;stroke-width:3.8171351;stroke-miterlimit:4;stroke-dasharray:none;stroke-opacity:1" />
    </clipPath>
    <linearGradient
       inkscape:collect="always"
       xlink:href="#linearGradient6114"
       id="linearGradient6143"
       gradientUnits="userSpaceOnUse"
       x1="711.83984"
       y1="-607.13873"
       x2="756.2063"
       y2="-604.18573"
       gradientTransform="matrix(-0.36370969,0.00305915,0.00305915,0.36370969,655.04751,622.65418)" />
    <linearGradient
       inkscape:collect="always"
       id="linearGradient6114">
      <stop
         style="stop-color:#c9722b;stop-opacity:1;"
         offset="0"
         id="stop6110" />
      <stop
         id="stop6118"
         offset="0.34751913"
         style="stop-color:#c9722b;stop-opacity:1" />
      <stop
         style="stop-color:#a94b29;stop-opacity:1"
         offset="1"
         id="stop6112" />
    </linearGradient>
    <linearGradient
       inkscape:collect="always"
       xlink:href="#linearGradient6591"
       id="linearGradient6593"
       x1="498.56787"
       y1="452.66736"
       x2="490.82846"
       y2="459.65781"
       gradientUnits="userSpaceOnUse"
       gradientTransform="matrix(0.74742323,0.63163653,-0.60895309,0.77526466,291.11851,-265.49944)" />
    <linearGradient
       inkscape:collect="always"
       id="linearGradient6591">
      <stop
         style="stop-color:#803300;stop-opacity:1;"
         offset="0"
         id="stop6587" />
      <stop
         style="stop-color:#552200;stop-opacity:1"
         offset="1"
         id="stop6589" />
    </linearGradient>
    <filter
       inkscape:collect="always"
       style="color-interpolation-filters:sRGB"
       id="filter6672"
       x="-0.58813107"
       width="2.1762621"
       y="-0.067461498"
       height="1.134923">
      <feGaussianBlur
         inkscape:collect="always"
         stdDeviation="3.2436237"
         id="feGaussianBlur6674" />
    </filter>
    <clipPath
       clipPathUnits="userSpaceOnUse"
       id="clipPath6844">
      <path
         sodipodi:nodetypes="sssss"
         inkscape:connector-curvature="0"
         id="path6846"
         d="m 637.81958,473.36275 c 7.70109,15.64998 -15.23572,41.59392 -65.98762,74.25799 -52.4524,33.75853 -88.52672,40.59309 -95.4807,30.78479 -5.78214,-8.15554 10.49362,-38.86151 66.13615,-76.05616 45.54639,-30.44582 91.01478,-37.76044 95.33217,-28.98662 z"
         style="opacity:1;fill:url(#linearGradient6848);fill-opacity:1;stroke:none;stroke-width:3.79292917;stroke-miterlimit:4;stroke-dasharray:none;stroke-opacity:1" />
    </clipPath>
    <filter
       inkscape:collect="always"
       style="color-interpolation-filters:sRGB"
       id="filter6836"
       x="-0.27634159"
       width="1.5526832"
       y="-0.13346855"
       height="1.2669371">
      <feGaussianBlur
         inkscape:collect="always"
         stdDeviation="2.2809326"
         id="feGaussianBlur6838" />
    </filter>
  </defs>
  <sodipodi:namedview
     id="base"
     pagecolor="#ffffff"
     bordercolor="#666666"
     borderopacity="1.0"
     inkscape:pageopacity="0.0"
     inkscape:pageshadow="2"
     inkscape:zoom="0.35"
     inkscape:cx="-194.82635"
     inkscape:cy="82.485529"
     inkscape:document-units="mm"
     inkscape:current-layer="layer1"
     inkscape:document-rotation="0"
     showgrid="false"
     fit-margin-top="3"
     fit-margin-right="3"
     fit-margin-bottom="3"
     fit-margin-left="3"
     inkscape:window-width="1600"
     inkscape:window-height="836"
     inkscape:window-x="0"
     inkscape:window-y="0"
     inkscape:window-maximized="1" />
  <metadata
     id="metadata3070">
    <rdf:RDF>
      <cc:Work
         rdf:about="">
        <dc:format>image/svg+xml</dc:format>
        <dc:type
           rdf:resource="http://purl.org/dc/dcmitype/StillImage" />
        <dc:title></dc:title>
      </cc:Work>
    </rdf:RDF>
  </metadata>
  <g
     inkscape:label="Ebene 1"
     inkscape:groupmode="layer"
     id="layer1"
     transform="translate(-22.443638,-111.74095)">
    <g
       id="g6962"
       transform="matrix(0.26192269,0,0,0.26192269,17.716594,50.093665)">
      <path
         inkscape:connector-curvature="0"
         id="path6640"
         d="m 50.793446,253.47023 c -0.73155,0.0189 -1.46543,0.13376 -2.19532,0.29102 -0.0036,-0.004 -0.0081,-0.008 -0.01172,-0.0117 -0.27758,0.0566 -0.55521,0.11069 -0.83007,0.18555 0.0038,0.004 0.0079,0.008 0.01172,0.0117 -0.43004,0.12123 -0.85424,0.27254 -1.27539,0.43359 -0.0049,-0.006 -0.02428,-0.0275 -0.0293,-0.0332 -0.3508,0.13241 -0.69243,0.28944 -1.0332,0.44726 0.0037,0.004 0.02759,0.0275 0.03124,0.0312 -0.19208,0.0892 -0.38941,0.16538 -0.57812,0.26172 -0.0071,-0.007 -0.01436,-0.0143 -0.02148,-0.0215 -0.29405,0.15046 -0.58187,0.31161 -0.86524,0.47851 0.01039,0.01 0.02087,0.0195 0.03125,0.0293 -0.96665,0.56391 -1.87372,1.20679 -2.68945,1.91015 -0.002,-0.002 -0.0038,-0.004 -0.0059,-0.006 -0.02885,0.0259 -0.05532,0.0558 -0.08399,0.082 -0.0659,0.0576 -0.14042,0.10971 -0.20507,0.16796 -2.72781,2.45781 -4.95061,6.19788 -4.89258,9.86915 0.0282,1.7857 2.53125,4.72265 2.53125,4.72265 l 81.291014,77.12305 a 4.2983742,13.181682 49.077862 0 0 -4.12695,7.83789 c -3.35669,3.6959 -5.31516,6.76146 -4.85937,8.61914 -5.50107,6.52052 -9.07171,12.14049 -10.09375,15.66992 -7.550054,9.57952 -12.054214,17.53873 -12.539074,22.05469 -4.86929,7.505 -7.50742,13.52661 -7.50586,17.24219 -2.73321,7.60759 -2.59818,12.86676 -0.34765,15.24414 3.35754,3.54675 11.33918,3.49536 22.873044,-0.75195 l 14.69922,0.89062 c 0,0 0.12285,-0.0672 0.125,-0.0684 l 24.97852,1.85547 c 0,0 0.25709,-0.15181 0.27148,-0.16015 l 32.04688,-1.39844 c 2.37455,0.003 11.42519,4.1e-4 16.26172,-0.36523 2.53868,-0.37023 5.34927,-1.42403 7.29297,-2.94922 1.76735,-1.81204 3.53302,-4.03783 4.28906,-6.56836 1.34733,-4.57132 1.78824,-13.41133 1.85547,-14.90821 l 4.37695,-29.13281 c 0.004,-0.005 0.13477,-0.15235 0.13477,-0.15235 l 2.76562,-26.24218 c 0.001,-0.002 0.0391,-0.0566 0.0391,-0.0566 l 1.31446,-13.21484 c 6.89324,-11.55379 8.34274,-20.6212 4.10547,-26.83398 -1.5737,-2.30741 -6.47884,-2.73027 -13.59766,-1.26563 -0.033,-0.0168 -0.0697,-0.0308 -0.10352,-0.0469 -0.21498,-0.10222 -0.44682,-0.18996 -0.69726,-0.26368 -0.0422,-0.0124 -0.0818,-0.0255 -0.125,-0.0371 -0.27363,-0.0736 -0.57007,-0.1305 -0.88282,-0.17188 -0.0665,-0.009 -0.13492,-0.0161 -0.20312,-0.0234 -0.32994,-0.0356 -0.67316,-0.0587 -1.04297,-0.0605 -0.35076,-0.002 -0.72221,0.0152 -1.11133,0.0469 -3.8885,0.28438 -9.52017,2.09603 -16.33789,5.29102 -0.23701,0.006 -0.47112,0.009 -0.72656,0.0312 -0.0949,0.008 -0.20336,0.0268 -0.30078,0.0371 -4.92153,0.52192 -13.03152,3.87589 -22.74219,9.63671 -3.73573,0.7423 -9.59056,3.44303 -16.40625,7.79493 -0.083,-0.0157 -0.15281,-0.046 -0.24414,-0.0527 -0.24396,-0.018 -0.52405,0.002 -0.82422,0.0469 -0.0494,0.008 -0.10543,0.022 -0.15625,0.0312 -0.26433,0.0469 -0.54558,0.11638 -0.84765,0.20703 -0.003,9.1e-4 -0.007,10e-4 -0.01,0.002 -0.0538,0.0164 -0.11106,0.037 -0.16602,0.0547 -0.31663,0.10118 -0.65096,0.22412 -1.0039,0.36914 -0.004,0.002 -0.008,0.002 -0.0117,0.004 -0.0478,0.0198 -0.0961,0.04 -0.14453,0.0605 -0.39723,0.16786 -0.81429,0.35902 -1.25195,0.57813 -0.002,0.001 -0.006,0.003 -0.008,0.004 -0.92739,0.46468 -1.93046,1.02815 -3.01172,1.70508 -0.15629,0.0978 -0.3214,0.2105 -0.48046,0.3125 a 4.2983742,13.181682 49.077862 0 0 -0.0762,-0.0215 4.2983742,13.181682 49.077862 0 1 -0.002,0 4.2983741,13.181681 49.077862 0 0 -0.24609,-0.0645 4.2983742,13.181682 49.077862 0 0 -0.25977,-0.0527 4.2983741,13.181681 49.077862 0 0 -0.49609,-0.0293 4.2983741,13.181681 49.077862 0 0 -1.4043,0.20508 4.2983742,13.181682 49.077862 0 0 -4.55469,2.0293 4.2983742,13.181682 49.077862 0 0 -0.44336,0.27734 L 56.111806,256.16164 c 0,0 -2.28472,-2.43206 -3.81641,-2.6211 -0.49642,-0.0612 -0.99832,-0.0833 -1.50195,-0.0703 z"
         style="opacity:0.3;fill:#000000;fill-opacity:1;stroke:none;stroke-width:0.34456995px;stroke-linecap:butt;stroke-linejoin:miter;stroke-opacity:1;filter:url(#filter6797)" />
      <g
         transform="translate(-17.816671,-22.944086)"
         id="g1179">
        <path
           style="opacity:0.3;fill:#000000;stroke:none;stroke-width:1px;stroke-linecap:butt;stroke-linejoin:miter;stroke-opacity:1;filter:url(#filter6964)"
           d="m 548.27248,449.20684 c -0.24668,2.56106 3.72896,3.75117 6.11806,4.7062 2.78295,1.11247 5.9567,1.20899 8.94178,0.94124 3.90615,-0.35037 7.39031,-2.92681 11.29489,-3.29434 13.02326,-1.22587 25.99315,3.19306 39.06147,3.76496 18.18059,0.79562 36.50365,1.52454 54.59194,-0.47062 2.23254,-0.24625 4.7498,-0.12212 6.58868,-1.41186 1.21163,-0.8498 2.75394,-2.34034 2.3531,-3.76496 -0.19002,-0.67534 -1.2027,-0.7678 -1.88248,-0.94124 -38.02554,-9.70207 -79.30507,-12.56336 -117.65504,-4.23559 -3.42791,0.74438 -9.07609,1.21457 -9.4124,4.70621 z"
           id="path6948"
           inkscape:connector-curvature="0"
           sodipodi:nodetypes="aaaaaaaaaaa"
           transform="matrix(0.96028785,-0.033493,0.033493,0.96028785,-444.4169,46.057014)" />
        <path
           style="fill:#3682cf;fill-opacity:1;stroke:none;stroke-width:0.34456995px;stroke-linecap:butt;stroke-linejoin:miter;stroke-opacity:1"
           d="m 223.06976,433.79305 -31.3803,25.36866 c 0,0 12.41818,0.0425 17.91296,-0.37291 2.53868,-0.37023 5.35049,-1.42352 7.29419,-2.94871 1.76735,-1.81204 3.53289,-4.03862 4.28893,-6.56915 1.46936,-4.98535 1.88422,-15.47789 1.88422,-15.47789 z"
           id="path6126"
           inkscape:connector-curvature="0"
           sodipodi:nodetypes="cccccc" />
        <path
           style="fill:#57db00;fill-opacity:1;stroke:none;stroke-width:0.34456995px;stroke-linecap:butt;stroke-linejoin:miter;stroke-opacity:1"
           d="m 227.67962,403.49062 -67.091,57.09216 33.20734,-1.44733 c 0,0 9.74329,-6.17666 14.19218,-9.82547 5.3696,-4.40394 14.98168,-14.47737 14.98168,-14.47737 z"
           id="path6124"
           inkscape:connector-curvature="0"
           sodipodi:nodetypes="cccacc" />
        <path
           style="fill:#feda11;fill-opacity:1;stroke:none;stroke-width:0.34456995px;stroke-linecap:butt;stroke-linejoin:miter;stroke-opacity:1"
           d="m 230.65744,375.62123 -3.10565,29.45591 c 0,0 -20.35134,23.39133 -32.25663,33.211 -10.53216,8.68711 -34.27284,22.42545 -34.27284,22.42545 l -31.53876,-2.34239 z"
           id="path6122"
           inkscape:connector-curvature="0"
           sodipodi:nodetypes="ccaccc" />
        <path
           style="fill:#ff6b08;fill-opacity:1;stroke:none;stroke-width:0.34456995px;stroke-linecap:butt;stroke-linejoin:miter;stroke-opacity:1"
           d="m 231.89987,363.26413 -1.5433,15.51412 c 0,0 -15.93705,24.76017 -42.08037,46.82091 -18.92706,15.97136 -52.35717,33.32681 -52.35717,33.32681 l -17.74064,-1.07519 z"
           id="path6120"
           inkscape:connector-curvature="0"
           sodipodi:nodetypes="ccsccc" />
        <path
           style="fill:#ffffff;stroke:none;stroke-width:1px;stroke-linecap:butt;stroke-linejoin:miter;stroke-opacity:1;filter:url(#filter6864)"
           d="m 615.99142,596.66126 c 0,-1.55455 7.77277,-98.71408 7.77277,-98.71408 l 12.04778,-12.43642 -15.54553,111.1505 z"
           id="path6850"
           inkscape:connector-curvature="0"
           clip-path="url(#clipPath6870)"
           transform="matrix(0.94676713,-0.03302142,0.03302142,0.94676713,-383.21593,-86.985767)" />
        <path
           style="fill:url(#linearGradient6389);fill-opacity:1;stroke:none;stroke-width:0.34456995px;stroke-linecap:butt;stroke-linejoin:miter;stroke-opacity:1"
           d="m 231.90011,363.26372 -113.72083,94.58703 17.74063,1.07527 c 0,0 0.11949,-0.0633 0.12725,-0.0674 l 24.97531,1.85418 c 0,0 0.25773,-0.1511 0.27214,-0.15946 l 32.05085,-1.39929 c 2.37915,0.003 11.42254,2.6e-4 16.2574,-0.36522 2.53868,-0.37023 5.34983,-1.42299 7.29353,-2.94818 1.76734,-1.81204 3.53223,-4.03971 4.28827,-6.57023 1.34995,-4.58023 1.79104,-13.44891 1.85687,-14.91858 l 4.37736,-29.12344 c 0.004,-0.005 0.1336,-0.15092 0.1336,-0.15092 l 2.76532,-26.24198 c 8.8e-4,-0.002 0.0388,-0.0569 0.0388,-0.0569 z"
           id="path6374"
           inkscape:connector-curvature="0" />
        <path
           style="opacity:1;fill:url(#linearGradient6282);fill-opacity:1;stroke:none;stroke-width:3.59320426;stroke-miterlimit:4;stroke-dasharray:none;stroke-opacity:1"
           d="m 235.7775,338.7297 c 9.31033,13.65102 -8.74178,41.04337 -51.98547,78.4486 -44.69263,38.65855 -77.61533,49.8804 -85.445772,41.60868 -6.510912,-6.8779 4.658592,-37.84811 51.884932,-80.15492 38.6573,-34.6304 80.32673,-47.55551 85.54631,-39.90236 z"
           id="path6098"
           inkscape:connector-curvature="0"
           sodipodi:nodetypes="sssss" />
        <path
           sodipodi:nodetypes="sssss"
           inkscape:connector-curvature="0"
           id="path6096"
           d="m 223.37099,338.47795 c 8.38114,12.28859 -13.9413,37.25862 -48.85808,68.30102 -34.91684,31.04246 -67.80818,47.22035 -74.857109,39.77416 -5.861115,-6.19144 15.087279,-37.40368 50.004129,-68.44617 34.91677,-31.04242 69.01241,-46.51837 73.71106,-39.62901 z"
           style="opacity:1;fill:url(#radialGradient6214);fill-opacity:1;stroke:none;stroke-width:3.23459148;stroke-miterlimit:4;stroke-dasharray:none;stroke-opacity:1" />
        <path
           style="opacity:1;fill:url(#linearGradient6228);fill-opacity:1;stroke:none;stroke-width:3.23459148;stroke-miterlimit:4;stroke-dasharray:none;stroke-opacity:1"
           d="m 223.37099,338.47795 c 8.38114,12.28859 -13.9413,37.25862 -48.85808,68.30102 -34.91684,31.04246 -67.80818,47.22035 -74.857109,39.77416 -5.861115,-6.19144 15.087279,-37.40368 50.004129,-68.44617 34.91677,-31.04242 69.01241,-46.51837 73.71106,-39.62901 z"
           id="path6220"
           inkscape:connector-curvature="0"
           sodipodi:nodetypes="sssss" />
        <path
           style="opacity:1;fill:url(#radialGradient6202);fill-opacity:1;stroke:none;stroke-width:2.57398939;stroke-miterlimit:4;stroke-dasharray:none;stroke-opacity:1"
           d="m 205.36954,343.47248 c 6.66945,9.77891 -11.09405,29.64929 -38.87978,54.3519 -27.78574,24.70263 -53.95966,37.5765 -59.56899,31.65105 -4.66409,-4.92697 12.00601,-29.76471 39.79176,-54.46737 27.78571,-24.70263 54.91798,-37.01791 58.65701,-31.53558 z"
           id="path6094"
           inkscape:connector-curvature="0"
           sodipodi:nodetypes="sssss" />
        <path
           sodipodi:nodetypes="sssss"
           inkscape:connector-curvature="0"
           id="path6230"
           d="m 205.36954,343.47248 c 6.66945,9.77891 -11.09405,29.64929 -38.87978,54.3519 -27.78574,24.70263 -53.95966,37.5765 -59.56899,31.65105 -4.66409,-4.92697 12.00601,-29.76471 39.79176,-54.46737 27.78571,-24.70263 54.91798,-37.01791 58.65701,-31.53558 z"
           style="opacity:1;fill:url(#linearGradient6238);fill-opacity:1;stroke:none;stroke-width:2.57398939;stroke-miterlimit:4;stroke-dasharray:none;stroke-opacity:1" />
        <path
           sodipodi:nodetypes="sssss"
           inkscape:connector-curvature="0"
           id="path6092"
           d="m 181.99171,352.51167 c 4.27343,6.26581 -7.10849,18.99771 -24.91213,34.82585 -17.80365,15.82815 -34.57453,24.07706 -38.16868,20.28033 -2.98853,-3.15693 7.69281,-19.07166 25.49645,-34.89982 17.80363,-15.82816 35.18857,-23.71915 37.58436,-20.20636 z"
           style="opacity:1;fill:url(#radialGradient6190);fill-opacity:1;stroke:none;stroke-width:1.64927769;stroke-miterlimit:4;stroke-dasharray:none;stroke-opacity:1" />
        <path
           style="opacity:1;fill:url(#linearGradient6248);fill-opacity:1;stroke:none;stroke-width:1.64927769;stroke-miterlimit:4;stroke-dasharray:none;stroke-opacity:1"
           d="m 181.99171,352.51167 c 4.27343,6.26581 -7.10849,18.99771 -24.91213,34.82585 -17.80365,15.82815 -34.57453,24.07706 -38.16868,20.28033 -2.98853,-3.15693 7.69281,-19.07166 25.49645,-34.89982 17.80363,-15.82816 35.18857,-23.71915 37.58436,-20.20636 z"
           id="path6240"
           inkscape:connector-curvature="0"
           sodipodi:nodetypes="sssss" />
        <path
           style="opacity:1;fill:url(#radialGradient6178);fill-opacity:1;stroke:none;stroke-width:0.84437442;stroke-miterlimit:4;stroke-dasharray:none;stroke-opacity:1"
           d="m 162.26804,360.05329 c 4.87681,4.98378 -2.01743,12.61125 -11.13229,20.71473 -9.11487,8.10348 -18.90887,11.9675 -21.87555,8.63057 -2.413,-2.71416 4.30682,-10.03607 13.42169,-18.13955 9.11486,-8.10348 17.68724,-13.1463 19.58615,-11.20575 z"
           id="path6089"
           inkscape:connector-curvature="0"
           sodipodi:nodetypes="sssss" />
        <path
           sodipodi:nodetypes="sssss"
           inkscape:connector-curvature="0"
           id="path6250"
           d="m 162.26804,360.05329 c 4.87681,4.98378 -2.01743,12.61125 -11.13229,20.71473 -9.11487,8.10348 -18.90887,11.9675 -21.87555,8.63057 -2.413,-2.71416 4.30682,-10.03607 13.42169,-18.13955 9.11486,-8.10348 17.68724,-13.1463 19.58615,-11.20575 z"
           style="opacity:1;fill:url(#linearGradient6258);fill-opacity:1;stroke:none;stroke-width:0.84437442;stroke-miterlimit:4;stroke-dasharray:none;stroke-opacity:1" />
        <ellipse
           style="opacity:1;fill:url(#radialGradient6162);fill-opacity:1;stroke:none;stroke-width:0.57678014;stroke-miterlimit:4;stroke-dasharray:none;stroke-opacity:1"
           id="path6100"
           cx="-134.92"
           cy="375.4642"
           rx="13.181682"
           ry="4.2983742"
           transform="rotate(-40.922138)" />
        <ellipse
           transform="rotate(-40.922138)"
           ry="4.2983742"
           rx="13.181682"
           cy="375.4642"
           cx="-134.92"
           id="ellipse6266"
           style="opacity:1;fill:url(#linearGradient6274);fill-opacity:1;stroke:none;stroke-width:0.57678014;stroke-miterlimit:4;stroke-dasharray:none;stroke-opacity:1" />
        <path
           style="opacity:1;fill:url(#linearGradient6295);fill-opacity:1;stroke:none;stroke-width:2.57398939;stroke-miterlimit:4;stroke-dasharray:none;stroke-opacity:1"
           d="m 201.99054,342.18633 c -0.41384,-0.002 -0.86901,0.0299 -1.34317,0.0801 1.44034,0.0676 2.47728,0.47553 3.01562,1.26486 6.66944,9.77891 -11.09389,29.64988 -38.87962,54.35249 -22.30378,19.82896 -43.5577,32.02647 -53.98175,33.00673 9.66338,0.35334 32.09132,-12.08741 55.68853,-33.06626 27.78572,-24.7026 45.54905,-44.57358 38.87961,-54.35248 -0.58422,-0.85662 -1.73949,-1.27728 -3.37922,-1.28551 z"
           id="path6284"
           inkscape:connector-curvature="0" />
        <path
           style="opacity:1;fill:url(#linearGradient6312);fill-opacity:1;stroke:none;stroke-width:1.64927769;stroke-miterlimit:4;stroke-dasharray:none;stroke-opacity:1"
           d="m 179.77372,351.68873 c 0.33794,0.13652 0.60696,0.32606 0.78511,0.58728 4.27343,6.26581 -7.1068,18.99914 -24.91045,34.82728 -15.05615,13.38551 -29.37338,21.34934 -35.6076,21.19265 5.18576,1.73083 20.67179,-6.40782 37.03947,-20.95933 17.80364,-15.82815 29.18579,-28.55968 24.91236,-34.82549 -0.38035,-0.5577 -1.14124,-0.82569 -2.21889,-0.82239 z"
           id="path6301"
           inkscape:connector-curvature="0" />
        <path
           style="opacity:1;fill:url(#linearGradient6321);fill-opacity:1;stroke:none;stroke-width:0.84437442;stroke-miterlimit:4;stroke-dasharray:none;stroke-opacity:1"
           d="m 161.25579,359.64579 c -1.01606,-0.0749 -2.54936,0.41852 -4.42378,1.3577 1.65808,-0.60352 2.87218,-0.67052 3.45392,-0.076 4.87681,4.98378 -2.01904,12.61142 -11.1339,20.7149 -3.84077,3.4146 -7.79537,6.0646 -11.3157,7.75215 3.97051,-1.55539 8.71974,-4.5551 13.29952,-8.6267 9.11487,-8.10348 16.00886,-15.73106 11.13205,-20.71483 -0.23736,-0.24257 -0.57817,-0.37519 -1.0121,-0.40719 z"
           id="path6316"
           inkscape:connector-curvature="0" />
        <path
           style="opacity:1;fill:url(#linearGradient6342);fill-opacity:1;stroke:none;stroke-width:0.57678014;stroke-miterlimit:4;stroke-dasharray:none;stroke-opacity:1"
           d="m 152.25876,362.85333 a 4.2983741,13.181681 49.077862 0 0 -5.09897,1.74598 4.2983741,13.181681 49.077862 0 1 5.25732,-0.39072 4.2983741,13.181681 49.077862 0 1 -7.14481,11.88342 4.2983741,13.181681 49.077862 0 1 -5.98062,4.22985 4.2983741,13.181681 49.077862 0 0 7.52018,-4.99633 4.2983741,13.181681 49.077862 0 0 7.14488,-11.88158 4.2983741,13.181681 49.077862 0 0 -1.69798,-0.59062 z"
           id="ellipse6331"
           inkscape:connector-curvature="0" />
        <path
           style="opacity:1;fill:url(#linearGradient6357);fill-opacity:1;stroke:none;stroke-width:3.23459148;stroke-miterlimit:4;stroke-dasharray:none;stroke-opacity:1"
           d="m 219.12467,336.86024 c -0.70153,-0.003 -1.48806,0.067 -2.32639,0.18296 1.48728,0.16723 2.56207,0.67898 3.15901,1.55424 8.38114,12.28859 -13.94047,37.2585 -48.85726,68.3009 -27.50556,24.45355 -53.74397,39.672 -67.09332,41.39545 11.83479,0.93978 40.41046,-14.75762 70.50686,-41.51451 34.91679,-31.0424 57.2384,-56.01231 48.85726,-68.3009 -0.73416,-1.07647 -2.18561,-1.60781 -4.24616,-1.61814 z"
           id="path6346"
           inkscape:connector-curvature="0" />
        <path
           style="opacity:0.6;fill:#ffffff;stroke:none;stroke-width:1px;stroke-linecap:butt;stroke-linejoin:miter;stroke-opacity:1;filter:url(#filter6478)"
           d="m 596.93282,472.72869 c -3.10878,0.83468 -6.82119,2.22546 -10.99023,4.13672 1.42174,1.1508 2.56844,2.40822 3.10742,3.7461 0.57176,8.45171 -6.13254,17.48864 -9.77735,24.69726 7.04724,-7.77378 19.72465,-14.82991 19.39063,-26.35351 -0.11019,-1.7783 -0.83681,-4.02498 -1.73047,-6.22657 z"
           id="path6401"
           inkscape:connector-curvature="0"
           clip-path="url(#clipPath6486)"
           transform="matrix(0.94676713,-0.03302142,0.03302142,0.94676713,-383.21593,-86.985767)" />
        <path
           clip-path="url(#clipPath6528)"
           inkscape:connector-curvature="0"
           id="path6516"
           d="m 596.93282,472.72869 c -3.10878,0.83468 -6.82119,2.22546 -10.99023,4.13672 1.42174,1.1508 2.56844,2.40822 3.10742,3.7461 0.57176,8.45171 -6.13254,17.48864 -9.77735,24.69726 7.04724,-7.77378 19.72465,-14.82991 19.39063,-26.35351 -0.11019,-1.7783 -0.83681,-4.02498 -1.73047,-6.22657 z"
           style="opacity:0.6;fill:#ffffff;stroke:none;stroke-width:1px;stroke-linecap:butt;stroke-linejoin:miter;stroke-opacity:1;filter:url(#filter6478)"
           transform="matrix(0.75816607,-0.08065727,0.08065727,0.75816607,-316.15046,39.635307)" />
        <path
           transform="matrix(0.81744552,-0.2232665,0.2232665,0.81744552,-380.24621,78.923172)"
           style="opacity:0.6;fill:#ffffff;stroke:none;stroke-width:1px;stroke-linecap:butt;stroke-linejoin:miter;stroke-opacity:1;filter:url(#filter6478)"
           d="m 596.93282,472.72869 c -3.10878,0.83468 -6.82119,2.22546 -10.99023,4.13672 1.42174,1.1508 2.56844,2.40822 3.10742,3.7461 0.57176,8.45171 -6.13254,17.48864 -9.77735,24.69726 7.04724,-7.77378 19.72465,-14.82991 19.39063,-26.35351 -0.11019,-1.7783 -0.83681,-4.02498 -1.73047,-6.22657 z"
           id="path6522"
           inkscape:connector-curvature="0"
           clip-path="url(#clipPath6538)" />
        <g
           id="g6699"
           transform="matrix(0.7001534,-0.63815643,0.63815643,0.7001534,-423.82541,293.01575)">
          <path
             sodipodi:nodetypes="ccaaaccsc"
             inkscape:connector-curvature="0"
             id="path2417"
             d="m 392.80977,465.51718 5.61779,-122.61873 c 0,0 -0.0529,-3.52228 -1.11344,-4.75889 -2.74988,-3.20618 -7.53088,-4.70862 -11.7547,-4.73278 -3.87578,-0.0222 -8.26982,1.31363 -10.83508,4.21904 -1.24773,1.41319 -1.38346,5.48363 -1.38346,5.48363 l 8.88352,122.13195 c 0,0 1.73646,1.55994 5.2349,1.62322 3.11371,0.0563 5.35047,-1.34744 5.35047,-1.34744 z"
             style="fill:url(#linearGradient6143);fill-opacity:1;stroke:none;stroke-width:0.36372256px;stroke-linecap:butt;stroke-linejoin:miter;stroke-opacity:1" />
          <path
             inkscape:connector-curvature="0"
             id="path6556"
             d="m 397.58867,338.66492 c -0.0803,-0.15724 -0.16133,-0.31489 -0.25914,-0.43491 -0.14556,-0.17861 -0.2987,-0.34918 -0.45592,-0.51747 0.11019,2.81838 0.21736,5.63677 0.29636,8.45499 0.0369,1.21399 0.22712,7.57789 0.28268,8.937 0.0413,1.01247 0.0968,2.0249 0.14453,3.03737 l 0.43198,-8.44822 c -0.0327,-0.64404 -0.0466,-0.99153 -0.0918,-1.88632 -0.1762,-3.0478 -0.27911,-6.09584 -0.34842,-9.14247 z m -1.27285,-1.50495 c -0.27984,-0.25817 -0.57486,-0.50065 -0.88063,-0.73131 0.003,0.0662 0.006,0.13283 0.009,0.19901 0.0928,4.77117 0.23744,9.54393 0.30791,14.31499 0.0195,1.31469 0.004,2.63027 0.0406,3.94518 0.044,1.58172 0.13504,3.1624 0.20233,4.74372 0.21859,5.4518 0.45432,10.9019 0.68909,16.35277 l 0.10523,-2.0405 c -0.18139,-4.56825 -0.44539,-9.13556 -0.45619,-13.70586 -0.004,-1.46699 -0.009,-2.93565 -0.0123,-4.40261 -0.0176,-1.32197 -0.0467,-2.64445 -0.053,-3.96599 -0.0221,-4.56717 0.12499,-9.12226 0.0386,-13.69339 0.004,-0.3388 0.006,-0.67716 0.01,-1.0158 z m -2.04357,-1.49363 c -0.25683,-0.1532 -0.51068,-0.3089 -0.77834,-0.44595 0.10575,3.67514 0.15212,7.35105 0.28753,11.02589 0.0552,1.50057 0.13976,3.00072 0.20433,4.50104 0.4412,10.25064 -0.0752,-1.03774 0.4026,9.23913 0.53195,6.83844 0.71408,13.69815 1.0279,20.54869 0.35949,6.95499 0.21382,3.90356 0.5037,10.41676 l 0.0642,-1.26153 c -0.0511,-1.20112 -0.10308,-2.401 -0.15416,-3.60215 -0.0577,-1.72495 -0.0988,-3.45323 -0.17101,-5.17785 -0.28442,-6.79231 -0.78437,-13.57786 -0.91861,-20.37505 -0.17214,-3.99387 -0.24579,-5.13881 -0.32627,-9.1164 -0.0287,-1.41984 -0.0264,-2.8379 -0.0498,-4.25762 -0.0616,-3.73881 -0.1684,-7.47978 -0.0958,-11.21306 0.002,-0.094 0.002,-0.18799 0.004,-0.2819 z m -2.08159,-1.04346 c -0.36783,-0.14614 -0.74599,-0.26763 -1.12407,-0.38682 0.0152,0.40917 0.0397,0.68448 0.13259,3.4469 0.0299,1.37379 0.0477,2.74579 0.0897,4.12037 0.0507,1.66098 0.13319,3.32199 0.18884,4.98315 0.2698,8.05892 0.0315,2.02194 0.27332,10.09559 0.51507,17.19439 -0.1032,-5.60022 0.348,11.44884 0.0474,1.89064 0.0822,3.78127 0.14103,5.67253 0.12784,4.11295 0.3016,8.22707 0.45254,12.34067 0.22107,6.02508 0.44336,12.04361 0.71537,18.06875 0.15554,7.33385 0.51933,14.67354 0.69901,22.00746 l 0.35617,-6.9826 c -0.031,-0.91934 -0.0288,-0.96829 -0.0856,-2.57326 -0.13509,-3.81885 -0.34258,-7.63861 -0.46914,-11.45748 -0.23233,-6.04266 -0.53502,-12.08136 -0.74474,-18.12379 -0.23099,-6.65519 -0.16932,-5.51586 -0.32556,-12.08394 -0.045,-1.89102 -0.0953,-3.78315 -0.14302,-5.67437 -0.31695,-13.30294 0.0179,1.85321 -0.18729,-11.1256 -0.0495,-3.12703 -0.17822,-6.84266 -0.21385,-9.97187 -0.0177,-1.54244 0.003,-3.08022 -0.009,-4.62189 -0.0101,-1.35199 -0.039,-2.7045 -0.0579,-4.05763 -0.0525,-4.37025 -0.0483,-4.24795 -0.0362,-5.12502 z m -1.76052,-0.57888 c -0.33639,-0.0917 -0.67472,-0.17126 -1.01447,-0.24254 0.17357,2.28086 0.33908,4.56451 0.49475,6.84925 0.26285,4.4415 0.4856,8.88455 0.66253,13.33398 0.30235,7.59614 0.0791,2.89042 0.3191,10.59568 0.0528,1.69461 0.12557,3.3886 0.1885,5.08293 0.29891,11.40583 0.51246,22.81171 0.69562,34.21606 0.11298,7.82305 0.067,3.90594 0.13592,11.74867 0.0831,6.37447 0.10905,4.20395 0.17985,10.63698 0.0193,1.75741 0.0184,3.51306 0.0308,5.27007 0.0106,1.51372 0.0261,3.02808 0.0388,4.54193 0.0264,2.50111 0.0339,5.00187 0.0736,7.50349 0.0654,4.12673 0.22732,8.25543 0.23216,12.38082 0.007,0.71463 0.0115,1.43115 0.0193,2.14675 l 0.74843,-14.62651 c -0.0152,-0.70903 -0.0231,-1.41879 -0.0446,-2.12767 -0.0345,-1.12816 -0.0907,-2.25441 -0.13663,-3.38212 -0.0358,-1.23942 -0.0719,-2.48088 -0.10769,-3.72026 -0.20709,-4.79086 -0.40189,-9.57769 -0.50334,-14.37214 -0.0374,-1.76102 -0.0441,-3.5216 -0.0843,-5.28264 -0.3853,-16.90243 0.0387,5.88974 -0.26685,-11.44767 -0.11592,-7.62017 -0.19643,-15.24307 -0.38117,-22.86504 -0.32194,-13.28327 -0.0285,1.69384 -0.26746,-11.45937 -0.0294,-1.77289 -0.0472,-3.5444 -0.0898,-5.31751 -0.0848,-3.5233 -0.22696,-7.0464 -0.33088,-10.56957 -0.13701,-4.64529 -0.26174,-9.28843 -0.40809,-13.93359 -0.0502,-1.65335 -0.11646,-3.30724 -0.18382,-4.95998 z m -2.60797,21.88389 c -0.3028,-5.32453 -0.7567,-10.62461 -1.1753,-15.92557 -0.11379,-1.11037 -0.22767,-2.22271 -0.34145,-3.33309 -0.11293,-1.06359 -0.23004,-2.12565 -0.33946,-3.19043 -0.002,-0.0207 -0.003,-0.0416 -0.005,-0.0623 -0.618,-0.005 -1.24909,0.0376 -1.88393,0.10703 0.26412,3.32708 0.51926,6.65565 0.68263,9.9917 0.021,0.24767 0.58228,7.02362 0.5862,7.07673 0.27359,3.71143 0.32,5.05729 0.51821,8.86272 0.35838,6.87842 0.18501,3.02325 0.46096,10.28817 0.32522,12.52478 0.58503,25.04939 0.97431,37.57431 0.35222,10.44233 0.64975,20.88397 1.00787,31.32634 0.0503,1.58167 0.0779,3.16364 0.15149,4.74471 0.061,1.31439 0.17499,2.62535 0.25337,3.93875 0.28427,4.76638 0.49627,9.53904 0.75819,14.30652 0.0526,1.63991 0.11392,3.28659 0.15404,4.93235 0.39379,-0.1008 0.75019,-0.21129 1.06112,-0.32744 -0.0807,-1.1518 -0.15194,-2.30438 -0.24046,-3.45436 -0.0702,-0.91215 -0.15303,-1.82372 -0.23005,-2.73509 -0.2534,-4.56754 -0.74042,-9.11033 -1.05781,-13.67105 -0.0918,-1.31965 -0.16249,-2.6403 -0.24316,-3.96085 -0.10487,-1.46482 -0.20878,-2.93018 -0.31374,-4.39495 -0.35518,-4.9286 -0.40986,-9.86912 -0.59817,-14.80287 -0.0664,-1.74091 -0.17306,-3.47971 -0.2468,-5.2204 -0.12249,-2.88786 -0.29207,-7.93119 -0.39307,-10.81441 -0.4497,-12.50167 -0.6818,-25.00389 -1.00645,-37.50594 -0.2634,-9.13585 -0.53345,-18.2716 -1.01369,-27.40195 -0.16361,-1.93047 -0.28266,-3.86376 -0.38734,-5.79912 0.31046,1.9826 0.53663,4.02638 0.76812,6.00597 0.65888,5.11562 0.95955,10.33587 1.30328,15.53475 0.50634,7.65836 0.0994,0.83804 0.54854,8.69078 0.43134,7.98331 0.10216,1.51882 0.46621,9.75384 0.079,1.78921 0.17733,3.57522 0.24705,5.36514 0.19725,5.06205 0.29414,10.13296 0.3949,15.19609 0.3657,9.50238 0.56339,19.00628 0.88285,28.51084 0.27574,5.85 0.33741,11.71076 0.53352,17.56286 0.0455,1.35935 0.32897,7.71956 0.3824,8.93317 0.21716,4.68554 0.3704,9.37508 0.53576,14.06315 0.35976,-0.15172 0.63193,-0.26837 0.80459,-0.36346 -0.31287,-5.11516 -0.61129,-10.23596 -0.69647,-15.36838 -0.10305,-4.40792 -0.1073,-5.01775 -0.24149,-9.29345 -0.13261,-4.22641 -0.31454,-8.44727 -0.47415,-12.67197 -0.0583,-1.54368 -0.10713,-3.0887 -0.16052,-4.63268 -0.17096,-4.65216 -0.30706,-9.30161 -0.45447,-13.9544 -0.15351,-4.84589 -0.35547,-9.69082 -0.43497,-14.53845 -0.1884,-4.91019 -0.414,-9.8202 -0.57549,-14.73181 -0.17173,-5.22402 -0.28876,-10.45032 -0.5054,-15.67287 -0.15545,-2.97977 -0.28691,-5.96072 -0.45626,-8.93869 z m -5.01398,-22.21745 c -0.26392,0.0501 -0.52665,0.1053 -0.78864,0.16887 0.57465,6.24144 1.03411,12.4991 1.35254,18.76545 0.0482,1.59036 0.0755,3.18059 0.14534,4.7705 0.11686,2.65919 0.33185,5.31542 0.45344,7.97444 0.0655,1.43158 0.10143,2.86231 0.16684,4.29393 0.064,1.40073 0.37313,6.86546 0.44991,8.22113 0.28091,4.74878 0.53087,9.4985 0.71377,14.25238 0.0655,1.70098 0.10248,3.40267 0.16889,5.10363 0.12878,3.2989 0.32653,6.59509 0.42661,9.895 0.2113,7.07947 0.1187,3.53365 0.27991,10.63902 0.19584,6.85309 0.52337,13.71106 0.50055,20.5616 0.28673,10.28106 -0.0356,-1.0113 0.28588,9.24198 0.0472,1.50069 0.0727,3.00095 0.12896,4.50149 0.14439,3.84597 0.38916,7.69137 0.55823,11.53644 0.042,1.07325 0.0819,2.14719 0.12608,3.22037 0.33496,-0.0214 0.65408,-0.0586 0.95976,-0.10832 -0.1333,-1.46226 -0.25891,-2.92581 -0.39246,-4.38647 -0.34996,-3.72405 -0.52179,-7.46395 -0.73815,-11.19936 -0.082,-1.41847 -0.18778,-2.83423 -0.26458,-4.25303 -0.2157,-3.9746 -0.22769,-5.12189 -0.3527,-9.11682 -0.3711,-6.79198 -0.37752,-13.58815 -0.59837,-20.38184 -0.0561,-1.72496 -0.14168,-3.45079 -0.21232,-5.17546 -0.0561,-1.76051 -0.11302,-3.52112 -0.16906,-5.28163 -0.17384,-3.37586 -0.17728,-6.75131 -0.29765,-10.12744 -0.11924,-3.34411 -0.30821,-6.68534 -0.44137,-10.02913 -0.12112,-3.04173 -0.23698,-6.45888 -0.34358,-9.50858 -0.11499,-4.22155 -0.33998,-8.43981 -0.53753,-12.65852 -0.0534,-1.13724 -0.28981,-6.9412 -0.36424,-8.14003 -0.0916,-1.475 -0.22526,-2.94394 -0.33754,-4.41704 -0.36363,-6.11631 -0.63661,-12.23988 -0.87827,-18.36253 z m -2.14399,0.56616 c -0.31001,0.10627 -0.61161,0.22732 -0.91259,0.35405 0.14867,3.35844 -0.20386,-4.474 0.30455,6.50423 0.31123,6.7216 0.51493,13.45293 0.88118,20.16987 0.44665,10.64903 -0.0232,0.008 0.49879,10.21946 0.38339,7.50156 0.56158,15.02135 0.96057,22.52244 0.17626,6.02722 0.40345,12.04478 0.63056,18.06974 0.15501,4.11352 0.28576,8.22818 0.46381,12.34003 0.0818,1.89074 0.18713,3.78069 0.28047,5.67033 0.81672,17.04106 -0.25948,-5.7433 0.50434,11.44565 0.3586,8.07111 0.14694,2.03012 0.47654,10.08775 0.068,1.66089 0.11037,3.32298 0.18316,4.98347 0.0604,1.3742 0.14298,2.74802 0.21586,4.12089 0.19518,4.76352 0.16574,4.29325 0.21411,5.94412 0.38482,0.0703 0.79889,0.12114 1.24881,0.14682 -0.0222,-0.30422 -0.0442,-0.61032 -0.068,-0.9135 -0.45988,-5.87989 -0.12542,-0.93147 -0.52179,-7.28195 -0.0814,-1.35178 -0.1533,-2.70641 -0.24455,-4.05661 -0.10308,-1.53965 -0.23767,-3.07212 -0.33481,-4.61282 -0.197,-3.12571 -0.34509,-6.84131 -0.52829,-9.96542 -0.75981,-12.9667 0.0329,2.17813 -0.63946,-11.11704 -0.0929,-1.89021 -0.18297,-3.78051 -0.27863,-5.67043 -0.33211,-6.56422 -0.30832,-5.42498 -0.57237,-12.07943 -0.2397,-6.04177 -0.38637,-12.08507 -0.60352,-18.12805 -0.15748,-3.81818 -0.23531,-7.63991 -0.38434,-11.45847 -0.58501,-14.99152 0.06,3.51083 -0.47112,-11.31848 -0.30338,-8.47095 -0.0129,-1.94054 -0.42713,-10.39576 -0.0782,-1.73186 -0.15695,-3.46375 -0.23417,-5.19571 -0.13758,-3.08546 -0.32451,-7.21634 -0.42409,-10.30399 -0.10842,-3.36029 -0.16871,-6.72089 -0.21785,-10.0812 z m -2.55029,1.18239 c -0.48668,0.29209 -0.95472,0.6083 -1.38696,0.9664 0.17528,2.32709 0.31809,4.65887 0.46998,6.98564 0.30178,4.1189 0.44658,8.24916 0.68803,12.37204 0.14641,2.4993 0.32461,4.99718 0.48426,7.49538 0.0999,1.51194 0.1968,3.02495 0.29867,4.53667 0.11833,1.75468 0.25093,3.50722 0.36223,5.26262 0.40751,6.42567 0.22023,4.25603 0.611,10.62378 0.51421,7.83302 0.26832,3.92209 0.73694,11.73735 0.66478,11.39385 1.29908,22.79011 1.84863,34.19041 0.0631,1.69434 0.11718,3.38863 0.19044,5.08283 0.33312,7.70319 0.20701,2.99584 0.46981,10.59284 0.15388,4.44994 0.26135,8.89578 0.32909,13.34154 0.0156,2.46975 0.0181,4.93692 0.0116,7.40339 0.29438,0.13863 0.65156,0.26986 1.04521,0.39334 -0.0657,-2.06047 -0.14189,-4.12104 -0.23253,-6.18169 -0.1992,-4.64402 -0.41821,-9.287 -0.62671,-13.93074 -0.15814,-3.52196 -0.27786,-7.04502 -0.45516,-10.56629 -0.0896,-1.77208 -0.20583,-3.54136 -0.30834,-5.31269 -0.73903,-13.14228 0.082,1.82296 -0.58395,-11.45279 -0.38211,-7.61765 -0.86848,-15.23115 -1.31917,-22.84402 -0.98367,-17.32258 0.28845,5.45267 -0.58321,-11.43914 -0.0899,-1.75999 -0.21479,-3.51767 -0.30839,-5.27748 -0.25576,-4.79102 -0.41634,-9.58232 -0.56569,-14.37439 -0.0564,-1.23899 -0.11338,-2.47772 -0.16978,-3.71667 -0.0379,-1.12789 -0.0646,-2.25559 -0.1141,-3.38343 -0.17853,-4.07499 -0.4905,-8.14622 -0.60844,-12.22406 -0.14605,-3.42623 -0.29164,-6.86185 -0.28327,-10.28085 z m -2.23136,1.74687 c -0.11026,0.11521 -0.22206,0.22872 -0.32627,0.34952 -0.13919,0.16121 -0.26326,0.36001 -0.37609,0.58124 0.12215,3.09496 0.24099,6.18975 0.32776,9.28453 0.0369,1.21399 0.22523,7.57801 0.28078,8.93711 0.2392,5.85117 0.61495,11.70225 0.77448,17.55477 0.29981,7.3511 0.6524,14.70086 0.96349,22.05084 l 1.95108,30.87466 c -0.11786,-2.65637 -0.24105,-5.31288 -0.35126,-7.96864 -0.20387,-4.91068 -0.34386,-9.82061 -0.52075,-14.73107 -0.28097,-4.8432 -0.43908,-9.68935 -0.64595,-14.53407 -0.19874,-4.65165 -0.40939,-9.30064 -0.58451,-13.95273 -0.0614,-1.54377 -0.12648,-3.08572 -0.18295,-4.62943 -0.15473,-4.22484 -0.28876,-8.44881 -0.47049,-12.67414 -0.18376,-4.27464 -0.22386,-4.88203 -0.44863,-9.28733 -0.22856,-3.95289 -0.32264,-7.90518 -0.3906,-11.85521 z m -1.2357,2.48151 c -0.38792,1.5993 -0.46343,3.34055 -0.46343,3.34055 l 0.44135,6.97752 c 0.0259,-3.43814 0.0807,-6.87435 0.0221,-10.31807 z"
             style="opacity:0.61000001;fill:url(#linearGradient6593);fill-opacity:1;stroke:none;stroke-width:0.46227655;stroke-miterlimit:4;stroke-dasharray:none;stroke-opacity:1" />
          <path
             id="path6599"
             d="m 413.74219,338.86914 c -2.27056,-0.013 -4.74421,0.97163 -5.90821,1.95117 -0.0864,0.18284 -0.17774,0.32123 -0.21484,0.55469 -0.10972,0.69047 -0.12579,1.15554 -0.13281,1.29688 l 8.11523,111.59179 5.1211,-111.80859 c -0.002,-0.0682 -0.0117,-0.51508 -0.0937,-1.09766 -0.006,-0.0417 -0.0281,-0.0505 -0.0391,-0.0918 -1.34172,-1.22173 -4.21338,-2.38141 -6.84765,-2.39648 z"
             style="opacity:0.7;fill:#ffffff;fill-opacity:1;stroke:none;stroke-width:0.36372256px;stroke-linecap:butt;stroke-linejoin:miter;stroke-opacity:1;filter:url(#filter6672)"
             transform="matrix(0.45430356,0,0,1.0653155,201.27385,-22.133407)"
             inkscape:connector-curvature="0" />
        </g>
        <path
           style="fill:#ffffff;stroke:none;stroke-width:1px;stroke-linecap:butt;stroke-linejoin:miter;stroke-opacity:1;filter:url(#filter6836)"
           d="m 625.71111,463.82953 c 0,0 4.03004,6.40015 4.27066,10.02416 0.35548,5.35403 -1.94168,10.69189 -4.29607,15.51359 -2.69491,5.51906 -10.97885,14.79757 -10.97885,14.79757 0,0 11.98771,-9.00408 15.75226,-15.27491 2.51422,-4.18809 4.06369,-9.19675 4.0574,-14.08156 -0.005,-4.04736 -3.39183,-11.65872 -3.39183,-11.65872 z"
           id="path6718"
           inkscape:connector-curvature="0"
           sodipodi:nodetypes="caacaacc"
           transform="matrix(0.93790594,-0.13338236,0.13338236,0.93790594,-425.57552,-20.166147)"
           clip-path="url(#clipPath6844)" />
      </g>
    </g>
  </g>
</svg>
