<?xml version="1.0" encoding="UTF-8" standalone="no"?>
<!-- Created with Inkscape (http://www.inkscape.org/) -->

<svg
   xmlns:dc="http://purl.org/dc/elements/1.1/"
   xmlns:cc="http://creativecommons.org/ns#"
   xmlns:rdf="http://www.w3.org/1999/02/22-rdf-syntax-ns#"
   xmlns:svg="http://www.w3.org/2000/svg"
   xmlns="http://www.w3.org/2000/svg"
   xmlns:sodipodi="http://sodipodi.sourceforge.net/DTD/sodipodi-0.dtd"
   xmlns:inkscape="http://www.inkscape.org/namespaces/inkscape"
   width="24px"
   height="24px"
   viewBox="0 0 24 24"
   version="1.1"
   id="SVGRoot"
   inkscape:export-filename="/tmp/template.png"
   inkscape:export-xdpi="96"
   inkscape:export-ydpi="96"
   inkscape:version="0.91 r13725"
   sodipodi:docname="area-shape-add.svg">
  <sodipodi:namedview
     id="base"
     pagecolor="#E0E1E2"
     bordercolor="#666768"
     borderopacity="1.0"
     inkscape:pageopacity="0"
     inkscape:pageshadow="2"
     inkscape:zoom="26.045162"
     inkscape:cx="18.074743"
     inkscape:cy="14.601493"
     inkscape:document-units="px"
     inkscape:current-layer="layer1"
     showgrid="true"
     inkscape:window-width="1920"
     inkscape:window-height="1137"
     inkscape:window-x="0"
     inkscape:window-y="30"
     inkscape:window-maximized="1"
     inkscape:grid-bbox="true"
     inkscape:pagecheckerboard="false"
     inkscape:snap-bbox="true"
     inkscape:bbox-nodes="true"
     inkscape:snap-others="false"
     inkscape:object-nodes="true"
     inkscape:snap-grids="true"
     inkscape:snap-bbox-midpoints="false"
     inkscape:snap-intersection-paths="false"
     inkscape:object-paths="false"
     inkscape:snap-midpoints="false"
     inkscape:snap-object-midpoints="false"
     inkscape:snap-center="false"
     inkscape:snap-text-baseline="false"
     inkscape:snap-smooth-nodes="false">
    <inkscape:grid
       type="xygrid"
       id="grid1374"
       originx="1"
       originy="1"
       empspacing="11"
       dotted="false" />
  </sodipodi:namedview>
  <defs
     id="defs815" />
  <metadata
     id="metadata818">
    <rdf:RDF>
      <cc:Work
         rdf:about="">
        <dc:format>image/svg+xml</dc:format>
        <dc:type
           rdf:resource="http://purl.org/dc/dcmitype/StillImage" />
        <dc:title></dc:title>
        <dc:creator>
          <cc:Agent>
            <dc:title>Maciej Dworak</dc:title>
          </cc:Agent>
        </dc:creator>
        <dc:rights>
          <cc:Agent>
            <dc:title />
          </cc:Agent>
        </dc:rights>
        <dc:description>RawTherapee icon.</dc:description>
        <cc:license
           rdf:resource="http://creativecommons.org/licenses/by-sa/4.0/" />
      </cc:Work>
      <cc:License
         rdf:about="http://creativecommons.org/licenses/by-sa/4.0/">
        <cc:permits
           rdf:resource="http://creativecommons.org/ns#Reproduction" />
        <cc:permits
           rdf:resource="http://creativecommons.org/ns#Distribution" />
        <cc:requires
           rdf:resource="http://creativecommons.org/ns#Notice" />
        <cc:requires
           rdf:resource="http://creativecommons.org/ns#Attribution" />
        <cc:permits
           rdf:resource="http://creativecommons.org/ns#DerivativeWorks" />
        <cc:requires
           rdf:resource="http://creativecommons.org/ns#ShareAlike" />
      </cc:License>
    </rdf:RDF>
  </metadata>
  <g
     id="layer1"
     inkscape:groupmode="layer"
     inkscape:label="Layer 1">
    <path
       sodipodi:nodetypes="cccc"
       inkscape:connector-curvature="0"
       d="m 40,6.028485 v 11.94303 M 34.028485,12 h 11.94303"
       style="opacity:0.7;fill:none;fill-rule:evenodd;stroke:#2a7fff;stroke-width:4.0999999;stroke-linecap:round;stroke-linejoin:miter;stroke-miterlimit:4;stroke-dasharray:none;stroke-opacity:1"
       id="path4947" />
    <circle
       r="10"
       cy="12"
       cx="40"
       id="circle4949"
       style="opacity:0.7;fill:none;fill-opacity:0.53333285;fill-rule:nonzero;stroke:#2a7fff;stroke-width:1.99999988;stroke-linecap:round;stroke-linejoin:miter;stroke-miterlimit:4;stroke-dasharray:none;stroke-opacity:1;paint-order:normal" />
    <path
       id="path4951"
       style="opacity:0.7;fill:none;fill-rule:evenodd;stroke:#2a7fff;stroke-width:4;stroke-linecap:round;stroke-linejoin:miter;stroke-miterlimit:4;stroke-dasharray:none;stroke-opacity:1"
       d="M 42,-9 42,9 M 33,0 51,0"
       inkscape:connector-curvature="0"
       sodipodi:nodetypes="cccc" />
    <g
       id="path-difference"
       transform="translate(-327.50984,-228.375)"
       inkscape:label="#difference">
      <circle
         r="5.5"
         cy="155.5"
         cx="229.5"
         style="color:#000000;fill:none;stroke:#c80000;stroke-linejoin:round;stroke-miterlimit:0;stroke-dasharray:1, 1"
         id="path10888"
         transform="translate(95.41614,59.5)" />
      <path
         style="color:#000000;fill:none;fill-opacity:0.70196078;fill-rule:evenodd;stroke:#2a7fff;stroke-width:1.00000024;stroke-linejoin:round;stroke-miterlimit:0;stroke-opacity:1"
         d="m 220.5,155.5625 0,9.9375 10.0937,0 0,-4.125 c -0.206,0.0234 -0.3814,0.125 -0.5937,0.125 -3.036,0 -5.5,-2.464 -5.5,-5.5 0,-0.1565 0.0809,-0.2843 0.0937,-0.4375 l -4.0937,0 z"
         transform="translate(94.91614,59)"
         id="rect10884"
         inkscape:connector-curvature="0" />
      <path
         inkscape:connector-curvature="0"
         id="path17396"
         transform="translate(94.91614,59)"
         d="m 220.5,155.5625 0,9.9375 10.0937,0 0,-4.125 c -0.206,0.0234 -0.3814,0.125 -0.5937,0.125 -3.036,0 -5.5,-2.464 -5.5,-5.5 0,-0.1565 0.0809,-0.2843 0.0937,-0.4375 l -4.0937,0 z"
         style="color:#000000;opacity:0.6;fill:#2a7fff;fill-opacity:1;fill-rule:evenodd;stroke:none;stroke-width:1.00000024;stroke-linejoin:round;stroke-miterlimit:0;stroke-opacity:1" />
    </g>
    <g
       id="path-intersection"
       transform="translate(-306.9161,-226.96088)"
       inkscape:label="#intersection">
      <rect
         style="color:#000000;fill:none;stroke:#c80000;stroke-linejoin:round;stroke-miterlimit:0;stroke-dasharray:1, 1;stroke-dashoffset:0.5"
         id="rect6889"
         width="10"
         height="10"
         x="315.41611"
         y="214.5" />
      <path
         transform="translate(95.4161,59.5)"
         style="color:#000000;fill:none;stroke:#c80000;stroke-linejoin:round;stroke-miterlimit:0;stroke-dasharray:1, 1"
         d="m 224,155.5 c 0,-3.036 2.464,-5.5 5.5,-5.5 3.036,0 5.5,2.464 5.5,5.5 0,3.036 -2.464,5.5 -5.5,5.5"
         id="path10903"
         sodipodi:nodetypes="cscs"
         inkscape:connector-curvature="0" />
      <path
         style="color:#000000;fill:none;fill-opacity:0.70196078;fill-rule:evenodd;stroke:#2a7fff;stroke-width:1.00000024;stroke-linejoin:round;stroke-miterlimit:0;stroke-opacity:1"
         d="m 204.5937,175.5 c -0.0165,0.1736 -0.0937,0.3221 -0.0937,0.5 0,3.036 2.464,5.5 5.5,5.5 0.1779,0 0.3264,-0.0772 0.5,-0.0938 l 0,-5.9062 -5.9063,0 z"
         transform="translate(114.9161,39)"
         id="rect10907"
         inkscape:connector-curvature="0" />
      <path
         inkscape:connector-curvature="0"
         id="path17462"
         transform="translate(114.9161,39)"
         d="m 204.5937,175.5 c -0.0165,0.1736 -0.0937,0.3221 -0.0937,0.5 0,3.036 2.464,5.5 5.5,5.5 0.1779,0 0.3264,-0.0772 0.5,-0.0938 l 0,-5.9062 -5.9063,0 z"
         style="color:#000000;opacity:0.6;fill:#2a7fff;fill-opacity:1;fill-rule:evenodd;stroke:none;stroke-width:1.00000024;stroke-linejoin:round;stroke-miterlimit:0;stroke-opacity:1" />
    </g>
    <g
       id="path-union"
       transform="translate(-310.87527,-205.5)"
       style="fill:#8ea7c4"
       inkscape:label="#union">
      <path
         style="color:#000000;fill:none;fill-opacity:0.70196078;fill-rule:evenodd;stroke:#2a7fff;stroke-width:1.00000024;stroke-linejoin:round;stroke-miterlimit:0;stroke-opacity:1"
         d="m 225.0625,150.5 c -2.8791,0 -5.1577,2.2389 -5.4063,5.0625 l -4.1562,0 0,9.9375 10.0937,0 0,-4.0313 c 2.7853,-0.2784 5,-2.5707 5,-5.4375 0,-3.0539 -2.4867,-5.5312 -5.5312,-5.5312 z"
         transform="translate(99.91614,59)"
         id="rect10877"
         inkscape:connector-curvature="0" />
      <path
         inkscape:connector-curvature="0"
         id="path17501"
         transform="translate(99.91614,59)"
         d="m 225.0625,150.5 c -2.8791,0 -5.1577,2.2389 -5.4063,5.0625 l -4.1562,0 0,9.9375 10.0937,0 0,-4.0313 c 2.7853,-0.2784 5,-2.5707 5,-5.4375 0,-3.0539 -2.4867,-5.5312 -5.5312,-5.5312 z"
         style="color:#000000;fill:#2a7fff;fill-opacity:1;fill-rule:evenodd;stroke:none;stroke-width:1.00000024;stroke-linejoin:round;stroke-miterlimit:0;stroke-opacity:1;opacity:0.6" />
    </g>
  </g>
</svg>
