<?xml version="1.0" encoding="UTF-8" standalone="no"?>
<!-- Created with Inkscape (http://www.inkscape.org/) -->

<svg
   xmlns:dc="http://purl.org/dc/elements/1.1/"
   xmlns:cc="http://creativecommons.org/ns#"
   xmlns:rdf="http://www.w3.org/1999/02/22-rdf-syntax-ns#"
   xmlns:svg="http://www.w3.org/2000/svg"
   xmlns="http://www.w3.org/2000/svg"
   xmlns:sodipodi="http://sodipodi.sourceforge.net/DTD/sodipodi-0.dtd"
   xmlns:inkscape="http://www.inkscape.org/namespaces/inkscape"
   width="24px"
   height="24px"
   viewBox="0 0 24 24"
   version="1.1"
   id="SVGRoot"
   inkscape:export-filename="/tmp/template.png"
   inkscape:export-xdpi="96"
   inkscape:export-ydpi="96"
   inkscape:version="0.92.5 (2060ec1f9f, 2020-04-08)"
   sodipodi:docname="gamut-warning-monitor.svg">
  <sodipodi:namedview
     id="base"
     pagecolor="#E0E1E2"
     bordercolor="#666768"
     borderopacity="1.0"
     inkscape:pageopacity="0"
     inkscape:pageshadow="2"
     inkscape:zoom="39.226909"
     inkscape:cx="4.5841296"
     inkscape:cy="13.151883"
     inkscape:document-units="px"
     inkscape:current-layer="layer1"
     showgrid="true"
     inkscape:window-width="1920"
     inkscape:window-height="1016"
     inkscape:window-x="0"
     inkscape:window-y="27"
     inkscape:window-maximized="1"
     inkscape:grid-bbox="true"
     inkscape:pagecheckerboard="false"
     inkscape:snap-bbox="true"
     inkscape:bbox-nodes="true"
     inkscape:snap-others="false"
     inkscape:object-nodes="false"
     inkscape:snap-grids="true"
     inkscape:snap-bbox-midpoints="false"
     inkscape:snap-global="false">
    <inkscape:grid
       type="xygrid"
       id="grid1374"
       originx="1"
       originy="1"
       empspacing="11"
       dotted="false" />
  </sodipodi:namedview>
  <defs
     id="defs815" />
  <metadata
     id="metadata818">
    <rdf:RDF>
      <cc:Work
         rdf:about="">
        <dc:format>image/svg+xml</dc:format>
        <dc:type
           rdf:resource="http://purl.org/dc/dcmitype/StillImage" />
        <dc:title />
        <dc:creator>
          <cc:Agent>
            <dc:title>Maciej Dworak</dc:title>
          </cc:Agent>
        </dc:creator>
        <dc:rights>
          <cc:Agent>
            <dc:title />
          </cc:Agent>
        </dc:rights>
        <dc:description>RawTherapee icon.</dc:description>
        <cc:license
           rdf:resource="http://creativecommons.org/licenses/by-sa/4.0/" />
      </cc:Work>
      <cc:License
         rdf:about="http://creativecommons.org/licenses/by-sa/4.0/">
        <cc:permits
           rdf:resource="http://creativecommons.org/ns#Reproduction" />
        <cc:permits
           rdf:resource="http://creativecommons.org/ns#Distribution" />
        <cc:requires
           rdf:resource="http://creativecommons.org/ns#Notice" />
        <cc:requires
           rdf:resource="http://creativecommons.org/ns#Attribution" />
        <cc:permits
           rdf:resource="http://creativecommons.org/ns#DerivativeWorks" />
        <cc:requires
           rdf:resource="http://creativecommons.org/ns#ShareAlike" />
      </cc:License>
    </rdf:RDF>
  </metadata>
  <g
     id="layer1"
     inkscape:groupmode="layer"
     inkscape:label="Layer 1">
    <path
       style="opacity:0.7;fill:#2a7fff;fill-opacity:1;fill-rule:evenodd;stroke:none;stroke-width:0.02828609px;stroke-linecap:butt;stroke-linejoin:miter;stroke-opacity:1"
       d="M 7.2049291,3.5983593 C 6.9286253,3.5799739 6.6476445,3.6146663 6.3660453,3.7224374 5.4707268,4.2285243 5.2675943,5.2544352 5.1982115,6.1194973 c -0.04134,3.181509 0.3442786,6.3777007 1.2045197,9.4716487 0.00539,0.01681 0.011723,0.03449 0.01712,0.05134 H 7.0349517 C 6.4402929,13.282103 6.1695815,10.857498 6.2009588,8.442752 6.2582766,7.7281098 6.4261596,6.8809383 7.1657975,6.4628513 8.0963348,6.1067241 9.014949,6.7267962 9.7338092,7.1837875 10.206359,7.5631588 10.675796,7.9640308 11.142548,8.3732255 11.069722,8.0903875 10.986636,7.7495406 10.923655,7.5239326 a 1.0784037,0.94328015 0 0 1 0,-0.00321 C 10.803285,7.0829511 10.692536,6.6554527 10.591036,6.2392968 a 1.0784037,0.94328015 0 0 1 -0.0012,-0.00215 C 10.496886,5.8510632 10.444232,5.5461865 10.429619,5.2498812 10.113873,5.029112 9.7979973,4.8084833 9.4745623,4.5952625 8.821937,4.1803775 8.0338417,3.6535164 7.2049291,3.5983593 Z m 8.0941279,5.4786885 c -0.01544,0.063825 -0.02579,0.097699 -0.04157,0.1636547 a 1.0784037,0.94328015 0 0 0 0,0.0011 c -0.162514,0.6738998 -0.337465,1.5225995 -0.522164,2.5403915 a 1.0784037,0.94328015 0 0 1 -0.0074,0.03209 c 0.163033,0.169073 0.328316,0.33713 0.489145,0.507009 0.03124,0.02253 0.06749,0.03933 0.0966,0.06418 0.193821,0.162025 0.349223,0.355679 0.484254,0.56049 0.840089,0.90626 1.649601,1.81404 2.407816,2.69656 h 0.764289 v -3.38862 C 17.748528,11.192955 16.531696,10.127244 15.29906,9.0770713 Z"
       id="path17362-9"
       inkscape:connector-curvature="0" />
    <text
       xml:space="preserve"
       style="font-style:normal;font-variant:normal;font-weight:bold;font-stretch:normal;font-size:18.90225601px;line-height:1.25;font-family:Georgia;-inkscape-font-specification:'Georgia Bold';letter-spacing:0px;word-spacing:0px;opacity:0.7;fill:#2a7fff;fill-opacity:1;stroke:none;stroke-width:0.5906955"
       x="7.4512563"
       y="17.701063"
       id="text8360"
       transform="scale(1.1306817,0.8844222)"><tspan
         sodipodi:role="line"
         id="tspan8358"
         x="7.4512563"
         y="17.701063"
         style="fill:#2a7fff;fill-opacity:1;stroke-width:0.5906955">!</tspan></text>
    <g
       aria-label="!"
       style="font-style:normal;font-variant:normal;font-weight:bold;font-stretch:normal;font-size:30.52574539px;line-height:1.25;font-family:Georgia;-inkscape-font-specification:'Georgia Bold';letter-spacing:0px;word-spacing:0px;opacity:0.7;fill:#2a7fff;fill-opacity:1;stroke:none;stroke-width:0.95392954"
       id="text8364" />
    <rect
       style="opacity:0.84100001;fill:none;fill-opacity:1;stroke:#2a7fff;stroke-width:2;stroke-linecap:round;stroke-miterlimit:10;stroke-dasharray:none;stroke-dashoffset:0;stroke-opacity:1;paint-order:stroke fill markers"
       id="rect4573"
       width="8.5583706"
       height="0.58163643"
       x="7.852098"
       y="21.174906"
       ry="0" />
  </g>
  <g
     inkscape:groupmode="layer"
     id="layer2"
     inkscape:label="Layer 2">
    <rect
       style="opacity:0.84100001;fill:none;fill-opacity:1;stroke:#2a7fff;stroke-width:2.05591393;stroke-linecap:round;stroke-miterlimit:10;stroke-dasharray:none;stroke-dashoffset:0;stroke-opacity:1;paint-order:stroke fill markers"
       id="rect61"
       width="19.752884"
       height="15.972244"
       x="2.2756145"
       y="1.6391371"
       ry="2.5847199" />
  </g>
</svg>
