<?xml version="1.0" encoding="UTF-8" standalone="no"?>
<!-- Created with Inkscape (http://www.inkscape.org/) -->

<svg
   xmlns:osb="http://www.openswatchbook.org/uri/2009/osb"
   xmlns:dc="http://purl.org/dc/elements/1.1/"
   xmlns:cc="http://creativecommons.org/ns#"
   xmlns:rdf="http://www.w3.org/1999/02/22-rdf-syntax-ns#"
   xmlns:svg="http://www.w3.org/2000/svg"
   xmlns="http://www.w3.org/2000/svg"
   xmlns:sodipodi="http://sodipodi.sourceforge.net/DTD/sodipodi-0.dtd"
   xmlns:inkscape="http://www.inkscape.org/namespaces/inkscape"
   width="24px"
   height="24px"
   viewBox="0 0 24 24"
   version="1.1"
   id="SVGRoot"
   inkscape:export-filename="/tmp/template.png"
   inkscape:export-xdpi="96"
   inkscape:export-ydpi="96"
   inkscape:version="0.91 r13725"
   sodipodi:docname="local-edit.svg">
  <sodipodi:namedview
     id="base"
     pagecolor="#E0E1E2"
     bordercolor="#666768"
     borderopacity="1.0"
     inkscape:pageopacity="0"
     inkscape:pageshadow="2"
     inkscape:zoom="33.833333"
     inkscape:cx="9.7851865"
     inkscape:cy="12"
     inkscape:document-units="px"
     inkscape:current-layer="layer1"
     showgrid="true"
     inkscape:window-width="1920"
     inkscape:window-height="1137"
     inkscape:window-x="0"
     inkscape:window-y="30"
     inkscape:window-maximized="1"
     inkscape:grid-bbox="true"
     inkscape:pagecheckerboard="false"
     inkscape:snap-bbox="true"
     inkscape:bbox-nodes="true"
     inkscape:snap-others="false"
     inkscape:object-nodes="false"
     inkscape:snap-grids="true"
     inkscape:snap-bbox-midpoints="false">
    <inkscape:grid
       type="xygrid"
       id="grid1374"
       originx="1"
       originy="1"
       empspacing="11"
       dotted="false" />
  </sodipodi:namedview>
  <defs
     id="defs815">
    <linearGradient
       id="linearGradient4142"
       osb:paint="solid">
      <stop
         style="stop-color:#000000;stop-opacity:1;"
         offset="0"
         id="stop4144" />
    </linearGradient>
  </defs>
  <metadata
     id="metadata818">
    <rdf:RDF>
      <cc:Work
         rdf:about="">
        <dc:format>image/svg+xml</dc:format>
        <dc:type
           rdf:resource="http://purl.org/dc/dcmitype/StillImage" />
        <dc:title />
        <dc:creator>
          <cc:Agent>
            <dc:title>Maciej Dworak</dc:title>
          </cc:Agent>
        </dc:creator>
        <dc:rights>
          <cc:Agent>
            <dc:title />
          </cc:Agent>
        </dc:rights>
        <dc:description>RawTherapee icon.</dc:description>
        <cc:license
           rdf:resource="http://creativecommons.org/licenses/by-sa/4.0/" />
      </cc:Work>
      <cc:License
         rdf:about="http://creativecommons.org/licenses/by-sa/4.0/">
        <cc:permits
           rdf:resource="http://creativecommons.org/ns#Reproduction" />
        <cc:permits
           rdf:resource="http://creativecommons.org/ns#Distribution" />
        <cc:requires
           rdf:resource="http://creativecommons.org/ns#Notice" />
        <cc:requires
           rdf:resource="http://creativecommons.org/ns#Attribution" />
        <cc:permits
           rdf:resource="http://creativecommons.org/ns#DerivativeWorks" />
        <cc:requires
           rdf:resource="http://creativecommons.org/ns#ShareAlike" />
      </cc:License>
    </rdf:RDF>
  </metadata>
  <g
     id="layer1"
     inkscape:groupmode="layer"
     inkscape:label="Layer 1">
    <g
       id="g1013"
       transform="translate(52.5,-14.5)"
       style="opacity:0.7;fill:#2a7fff;fill-opacity:1;stroke:none">
      <path
         inkscape:connector-curvature="0"
         id="path1448-3-7"
         d="M -0.5,16 C -1.331,16 -2,16.669 -2,17.5 v 5.845703 C -1.544436,23.129409 -1.039612,23 -0.5,23 0.039612,23 0.544436,23.129409 1,23.345703 V 17.5 C 1,16.669 0.331,16 -0.5,16 Z m -9,9 c -0.831,0 -1.5,0.669 -1.5,1.5 0,0.831 0.669,1.5 1.5,1.5 h 5.845703 C -3.870591,27.544436 -4,27.039612 -4,26.5 -4,25.960388 -3.870591,25.455564 -3.654297,25 Z M 2.654297,25 C 2.870591,25.455564 3,25.960388 3,26.5 3,27.039612 2.870591,27.544436 2.654297,28 H 8.5 C 9.331,28 10,27.331 10,26.5 10,25.669 9.331,25 8.5,25 Z M -2,29.654297 V 35.5 C -2,36.331 -1.331,37 -0.5,37 0.331,37 1,36.331 1,35.5 V 29.654297 C 0.544436,29.870591 0.039612,30 -0.5,30 -1.039612,30 -1.544436,29.870591 -2,29.654297 Z"
         style="opacity:1;fill:#2a7fff;fill-opacity:1;stroke:none;stroke-width:1;stroke-linecap:butt;stroke-linejoin:miter;stroke-miterlimit:4;stroke-dasharray:none;stroke-opacity:1;paint-order:normal" />
    </g>
    <circle
       r="3"
       cy="5"
       cx="45"
       id="circle883"
       style="opacity:0.9;fill:#2a7fff;fill-opacity:1;fill-rule:nonzero;stroke:none;stroke-width:1;stroke-linecap:round;stroke-linejoin:miter;stroke-miterlimit:4;stroke-dasharray:none;stroke-opacity:1;paint-order:normal" />
    <rect
       style="opacity:0.5;fill:none;fill-opacity:1;stroke:#2a7fff;stroke-width:2.14704919;stroke-miterlimit:4;stroke-dasharray:none;stroke-opacity:1"
       id="rect4140"
       width="19.852951"
       height="19.852951"
       x="2.0735247"
       y="2.0735247"
       ry="1.4538759" />
    <path
       style="opacity:0.9;fill:#2a7fff;fill-opacity:1;fill-rule:nonzero;stroke:none;stroke-width:1;stroke-linecap:square;stroke-linejoin:round;stroke-miterlimit:4;stroke-dasharray:1.00000003, 2.00000002;stroke-dashoffset:0;stroke-opacity:1;paint-order:normal"
       d="m 12.517242,7.2586217 0,4.1136693 a 1.8522167,1.9261084 0 0 1 0.926108,-0.261453 1.8522167,1.9261084 0 0 1 0.926109,0.259572 l 0,-4.1117883 z M 14.369459,14.7016 a 1.8522167,1.9261084 0 0 1 -0.926109,0.261454 1.8522167,1.9261084 0 0 1 -0.926108,-0.259573 l 0,4.11179 1.852217,0 z"
       id="rect825"
       inkscape:connector-curvature="0" />
    <path
       style="opacity:0.9;fill:#2a7fff;fill-opacity:1;fill-rule:nonzero;stroke:none;stroke-width:0.99999994;stroke-linecap:square;stroke-linejoin:round;stroke-miterlimit:4;stroke-dasharray:1.00000006, 2.00000007;stroke-dashoffset:0;stroke-opacity:1;paint-order:normal"
       d="m 7.8866996,12.073892 0,1.926108 3.9558574,0 a 1.8522167,1.9261084 0 0 1 -0.251424,-0.963054 1.8522167,1.9261084 0 0 1 0.249615,-0.963054 z m 7.1574434,0 A 1.8522167,1.9261084 0 0 1 15.295567,13.036946 1.8522167,1.9261084 0 0 1 15.045952,14 L 19,14 19,12.073892 Z"
       id="rect829"
       inkscape:connector-curvature="0" />
  </g>
</svg>
