<?xml version="1.0" encoding="UTF-8" standalone="no"?>
<!-- Created with Inkscape (http://www.inkscape.org/) -->

<svg
   xmlns:dc="http://purl.org/dc/elements/1.1/"
   xmlns:cc="http://creativecommons.org/ns#"
   xmlns:rdf="http://www.w3.org/1999/02/22-rdf-syntax-ns#"
   xmlns:svg="http://www.w3.org/2000/svg"
   xmlns="http://www.w3.org/2000/svg"
   xmlns:sodipodi="http://sodipodi.sourceforge.net/DTD/sodipodi-0.dtd"
   xmlns:inkscape="http://www.inkscape.org/namespaces/inkscape"
   width="24px"
   height="24px"
   viewBox="0 0 24 24"
   version="1.1"
   id="SVGRoot"
   inkscape:export-filename="/tmp/template.png"
   inkscape:export-xdpi="96"
   inkscape:export-ydpi="96"
   inkscape:version="0.91 r13725"
   sodipodi:docname="wand.svg">
  <sodipodi:namedview
     id="base"
     pagecolor="#E0E1E2"
     bordercolor="#666768"
     borderopacity="1.0"
     inkscape:pageopacity="0"
     inkscape:pageshadow="2"
     inkscape:zoom="20"
     inkscape:cx="16.683472"
     inkscape:cy="11.999999"
     inkscape:document-units="px"
     inkscape:current-layer="layer1"
     showgrid="true"
     inkscape:window-width="1280"
     inkscape:window-height="737"
     inkscape:window-x="0"
     inkscape:window-y="30"
     inkscape:window-maximized="1"
     inkscape:grid-bbox="true"
     inkscape:pagecheckerboard="false"
     inkscape:snap-bbox="true"
     inkscape:bbox-nodes="true"
     inkscape:snap-others="false"
     inkscape:object-nodes="true"
     inkscape:snap-grids="true"
     inkscape:snap-bbox-midpoints="false"
     inkscape:snap-midpoints="true"
     inkscape:snap-smooth-nodes="true"
     inkscape:snap-intersection-paths="true"
     inkscape:object-paths="true"
     inkscape:snap-nodes="false">
    <inkscape:grid
       type="xygrid"
       id="grid1374"
       originx="1"
       originy="1"
       empspacing="11"
       dotted="false" />
  </sodipodi:namedview>
  <defs
     id="defs815" />
  <metadata
     id="metadata818">
    <rdf:RDF>
      <cc:Work
         rdf:about="">
        <dc:format>image/svg+xml</dc:format>
        <dc:type
           rdf:resource="http://purl.org/dc/dcmitype/StillImage" />
        <dc:title />
        <dc:creator>
          <cc:Agent>
            <dc:title>Maciej Dworak</dc:title>
          </cc:Agent>
        </dc:creator>
        <dc:rights>
          <cc:Agent>
            <dc:title />
          </cc:Agent>
        </dc:rights>
        <dc:description>RawTherapee icon.</dc:description>
        <cc:license
           rdf:resource="http://creativecommons.org/licenses/by-sa/4.0/" />
      </cc:Work>
      <cc:License
         rdf:about="http://creativecommons.org/licenses/by-sa/4.0/">
        <cc:permits
           rdf:resource="http://creativecommons.org/ns#Reproduction" />
        <cc:permits
           rdf:resource="http://creativecommons.org/ns#Distribution" />
        <cc:requires
           rdf:resource="http://creativecommons.org/ns#Notice" />
        <cc:requires
           rdf:resource="http://creativecommons.org/ns#Attribution" />
        <cc:permits
           rdf:resource="http://creativecommons.org/ns#DerivativeWorks" />
        <cc:requires
           rdf:resource="http://creativecommons.org/ns#ShareAlike" />
      </cc:License>
    </rdf:RDF>
  </metadata>
  <g
     id="layer1"
     inkscape:groupmode="layer"
     inkscape:label="Layer 1">
    <g
       id="g923"
       transform="translate(28,0)">
      <path
         sodipodi:nodetypes="sccsccscscsccscsc"
         inkscape:connector-curvature="0"
         id="path4416"
         d="m 11.999952,1.0000001 c -2.5167905,0 -3.4837781,9.3785689 -4.9842818,15.8813439 l 0.01495,0 c 1.4886221,-1.048684 2.4610714,-2.703062 4.9693358,-2.703062 2.508271,0 3.135879,1.654378 4.641512,2.703062 l 0.01509,0 C 15.136512,10.378569 14.516742,1.0000001 11.999952,1.0000001 Z M 7.0127286,16.894094 c -0.6883344,0.480027 -1.1112441,0.830044 -2.5182028,0.830044 -2.0461976,0 -2.364468,-0.100754 -3.49452624,-0.421421 C 2.5125301,18.538999 2.4483282,23 4.4945258,23 5.9014276,23 6.3244042,19.872186 7.0127286,16.894094 Z m 9.6468104,0 C 17.357036,19.872182 17.866243,23 19.505425,23 c 2.046198,0 1.982043,-4.461001 3.494573,-5.697283 -1.130058,0.320667 -1.448375,0.421421 -3.494573,0.421421 -1.639249,0 -2.148384,-0.350018 -2.845886,-0.830044 z"
         style="color:#000000;display:inline;overflow:visible;visibility:visible;opacity:0.7;fill:#2a7fff;fill-opacity:1;fill-rule:nonzero;stroke:none;stroke-width:2;stroke-linecap:butt;stroke-linejoin:miter;stroke-miterlimit:4;stroke-dasharray:none;stroke-dashoffset:0;stroke-opacity:1;marker:none;marker-mid:none;enable-background:accumulate" />
      <path
         d="m 28.601562,-165.38477 c -5.71372,17.6912 -11.582078,38.69752 -17.070312,61.99219 -9.9499606,42.232344 -19.354294,91.619437 -28.919922,141.832033 14.6498617,-3.761883 30.392331,-6.201172 47.410156,-6.201172 13.916269,0 26.98446,1.702792 39.283204,4.433594 -8.744182,-50.203884 -17.087085,-99.49047 -25.888672,-141.626955 -4.714851,-22.57175 -9.805473,-43.0864 -14.814454,-60.42969 z"
         id="path4538"
         style="color:#000000;display:inline;overflow:visible;visibility:visible;opacity:0.7;fill:#2a7fff;fill-opacity:1;fill-rule:nonzero;stroke:none;stroke-width:55.48081207;stroke-linecap:butt;stroke-linejoin:miter;stroke-miterlimit:4;stroke-dasharray:none;stroke-dashoffset:0;stroke-opacity:1;marker:none;marker-mid:none;enable-background:accumulate"
         inkscape:original="M 29.369141 -211.95898 C 28.511023 -210.35855 27.655323 -208.79917 26.775391 -206.95508 C 16.592619 -185.61482 5.5468073 -149.50561 -4.4316406 -107.15234 C -16.347735 -56.574795 -27.327311 3.0416675 -38.744141 62.666016 C -18.928904 54.333834 4.0764978 48.636719 30.021484 48.636719 C 52.377577 48.636719 72.521783 53.077965 90.007812 59.900391 C 79.520151 0.72326823 69.928107 -58.235748 59.46875 -108.30859 C 50.603806 -150.74839 40.649858 -186.92485 31.242188 -208.09961 C 30.608391 -209.52615 29.995039 -210.68315 29.369141 -211.95898 z "
         inkscape:radius="-16.399292"
         sodipodi:type="inkscape:offset"
         transform="matrix(0.03604851,0,0,0.03604851,10.917708,10.749123)" />
      <path
         id="path4534"
         d="m 18.972083,19.377388 c 0.10902,0.413652 0.218708,0.80105 0.332464,1.114124 0.0694,0.190995 0.140201,0.349137 0.206785,0.485599 0.108408,-0.23346 0.232639,-0.540042 0.353657,-0.898397 0.07214,-0.21363 0.136585,-0.445854 0.201856,-0.684639 -0.178845,0.0031 -0.358618,0.006 -0.561427,0.006 -0.185833,0 -0.36025,-0.01082 -0.533335,-0.02267 z"
         style="color:#000000;display:inline;overflow:visible;visibility:visible;opacity:0.7;fill:#2a7fff;fill-opacity:1;fill-rule:nonzero;stroke:none;stroke-width:1.99999988;stroke-linecap:butt;stroke-linejoin:miter;stroke-miterlimit:4;stroke-dasharray:none;stroke-dashoffset:0;stroke-opacity:1;marker:none;marker-mid:none;enable-background:accumulate"
         inkscape:connector-curvature="0" />
      <path
         id="path4527"
         d="m 4.7362357,19.38802 c -0.081242,0.0033 -0.1578296,0.01205 -0.2417085,0.01205 -0.2027832,0 -0.3825321,-0.0029 -0.5613571,-0.006 0.065267,0.238797 0.1296512,0.471071 0.201788,0.68471 0.079263,0.234716 0.1597674,0.443304 0.2371309,0.630708 0.018111,-0.05191 0.036364,-0.09853 0.054147,-0.154332 0.1050195,-0.329692 0.2073152,-0.735206 0.3100025,-1.167141 z"
         style="color:#000000;display:inline;overflow:visible;visibility:visible;opacity:0.7;fill:#2a7fff;fill-opacity:1;fill-rule:nonzero;stroke:none;stroke-width:1.99999988;stroke-linecap:butt;stroke-linejoin:miter;stroke-miterlimit:4;stroke-dasharray:none;stroke-dashoffset:0;stroke-opacity:1;marker:none;marker-mid:none;enable-background:accumulate"
         inkscape:connector-curvature="0" />
    </g>
    <g
       id="g913"
       transform="matrix(1.4193676,0,0,1.5681482,-54.499892,-31.885193)"
       style="stroke-width:0.67028427">
      <g
         transform="matrix(0.02531853,0,0,0.02531853,17.932401,9.9913466)"
         id="g823"
         style="display:inline;stroke-width:39.90919495">
        <path
           sodipodi:nodetypes="caszsac"
           inkscape:connector-curvature="0"
           id="path4441"
           d="m -276.9561,831.2087 c 0,0 17.01565,4.94163 23.45569,10.61372 42.86209,37.75088 37.21507,145.93865 89.79144,145.93865 115.075198,0 98.500733,-554.11144 192.85003,-554.11144 94.3493,0 58.775799,554.11144 192.85003,554.11144 52.57637,0 46.92935,-108.18777 89.79144,-145.93865 6.44004,-5.67209 23.45569,-10.61372 23.45569,-10.61372"
           style="color:#000000;display:inline;overflow:visible;visibility:visible;opacity:0.7;fill:#2a7fff;fill-opacity:1;fill-rule:nonzero;stroke:none;stroke-width:52.94812775;stroke-linecap:butt;stroke-linejoin:miter;stroke-miterlimit:4;stroke-dasharray:none;stroke-dashoffset:0;stroke-opacity:1;marker:none;marker-mid:none;enable-background:accumulate" />
        <path
           style="color:#000000;display:inline;overflow:visible;visibility:visible;opacity:0.7;fill:#2a7fff;fill-opacity:1;fill-rule:nonzero;stroke:none;stroke-width:52.94812775;stroke-linecap:butt;stroke-linejoin:miter;stroke-miterlimit:4;stroke-dasharray:none;stroke-dashoffset:0;stroke-opacity:1;marker:none;marker-mid:none;enable-background:accumulate"
           d="m -276.9561,831.2087 c 0,0 16.18567,6.22083 23.45569,10.61372 32.92929,19.89743 37.21507,70.37796 89.79144,70.37796 115.075198,0 98.500733,-302.24258 192.85003,-302.24258 94.3493,0 58.775799,302.24258 192.85003,302.24258 52.57637,0 56.86215,-50.48053 89.79144,-70.37796 7.27002,-4.39289 23.45569,-10.61372 23.45569,-10.61372"
           id="path4443"
           inkscape:connector-curvature="0"
           sodipodi:nodetypes="caszsac" />
      </g>
    </g>
    <path
       inkscape:connector-curvature="0"
       style="fill:#2a7fff;fill-opacity:1;opacity:0.7"
       d="m 14.375572,9.0691643 c -0.297014,0 -0.538069,-0.2582133 -0.538069,-0.5763689 0,-1.5884726 -1.207425,-2.8818444 -2.690341,-2.8818444 -0.297014,0 -0.538069,-0.2582132 -0.538069,-0.5763689 0,-0.3181556 0.241055,-0.5763688 0.538069,-0.5763688 1.482916,0 2.690341,-1.2933718 2.690341,-2.8818444 C 13.837503,1.2582133 14.078558,1 14.375572,1 c 0.297013,0 0.538068,0.2582133 0.538068,0.5763689 0,1.5884726 1.207425,2.8818444 2.690342,2.8818444 0.297013,0 0.538068,0.2582132 0.538068,0.5763688 0,0.3181557 -0.241055,0.5763689 -0.538068,0.5763689 -1.482917,0 -2.690342,1.2933718 -2.690342,2.8818444 0,0.3181556 -0.241055,0.5763689 -0.538068,0.5763689 z M 13.085284,5.0345821 c 0.527307,0.3412104 0.971751,0.8161384 1.290288,1.3821326 C 14.694108,5.8518732 15.137476,5.3757925 15.66586,5.0345821 15.138553,4.6933718 14.694108,4.2184438 14.375572,3.6524496 14.057035,4.2172911 13.613667,4.6933718 13.085284,5.0345821 Z"
       id="path4" />
    <path
       inkscape:connector-curvature="0"
       style="fill:#2a7fff;fill-opacity:1;opacity:0.7"
       d="m 3.614205,12.527378 c -0.2970137,0 -0.5380683,-0.258214 -0.5380683,-0.576369 0,-0.318156 -0.2410546,-0.576369 -0.5380684,-0.576369 C 2.2410546,11.37464 2,11.116427 2,10.798271 c 0,-0.318156 0.2410546,-0.576369 0.5380683,-0.576369 0.2970138,0 0.5380684,-0.2582132 0.5380684,-0.5763689 0,-0.3181556 0.2410546,-0.5763688 0.5380683,-0.5763688 0.2970137,0 0.5380683,0.2582132 0.5380683,0.5763688 0,0.3181557 0.2410547,0.5763689 0.5380684,0.5763689 0.2970137,0 0.5380683,0.258213 0.5380683,0.576369 0,0.318156 -0.2410546,0.576369 -0.5380683,0.576369 -0.2970137,0 -0.5380684,0.258213 -0.5380684,0.576369 0,0.318155 -0.2410546,0.576369 -0.5380683,0.576369 z"
       id="path6" />
    <path
       inkscape:connector-curvature="0"
       style="fill:#2a7fff;fill-opacity:1;opacity:0.7"
       d="M 21.528652,19.373487 10.136669,7.1706052 C 9.8321227,6.8443804 9.4274953,6.6657061 8.9948884,6.6657061 c -0.432607,0 -0.8372344,0.179827 -1.1417811,0.5048991 L 7.2224913,7.8461095 C 6.9179446,8.1723343 6.7511434,8.6057637 6.7511434,9.0691643 c 0,0.4634005 0.1678773,0.8968299 0.4713479,1.2230547 L 18.614474,22.495101 C 18.919021,22.821326 19.323648,23 19.756255,23 c 0.432607,0 0.837234,-0.179827 1.141781,-0.504899 l 0.630616,-0.675504 C 21.833199,21.493372 22,21.059942 22,20.596542 22,20.133141 21.832123,19.699712 21.528652,19.373487 Z M 7.984396,8.6610951 8.6150121,7.9855908 C 8.716169,7.8772334 8.850686,7.8184438 8.9959645,7.8184438 c 0.1452784,0 0.2797955,0.059942 0.3809524,0.167147 L 10.925478,9.6443804 9.5340328,11.13487 7.9854722,9.4760807 c -0.2098467,-0.2247839 -0.2098467,-0.5902017 0,-0.8149856 z m 12.782351,12.3435159 -0.630616,0.675504 c -0.101157,0.108358 -0.235674,0.167147 -0.379876,0.167147 -0.144202,0 -0.279795,-0.05994 -0.379876,-0.167147 l -9.081518,-9.727954 1.391445,-1.49049 9.081518,9.727954 c 0.209846,0.224784 0.209846,0.590202 0,0.814986 z"
       id="path8" />
    <path
       inkscape:connector-curvature="0"
       style="fill:#2a7fff;fill-opacity:1;opacity:0.7"
       d="M 5.7664783,6.7636888 C 5.4694646,6.7636888 5.22841,6.5054755 5.22841,6.1873199 5.22841,5.2340058 4.50417,4.4582133 3.614205,4.4582133 3.3171913,4.4582133 3.0761367,4.2 3.0761367,3.8818444 c 0,-0.3181556 0.2410546,-0.5763689 0.5380683,-0.5763689 0.889965,0 1.614205,-0.7757925 1.614205,-1.7291066 C 5.22841,1.2582133 5.4694646,1 5.7664783,1 c 0.2970138,0 0.5380684,0.2582133 0.5380684,0.5763689 0,0.9533141 0.72424,1.7291066 1.614205,1.7291066 0.2970137,0 0.5380683,0.2582133 0.5380683,0.5763689 0,0.3181556 -0.2410546,0.5763689 -0.5380683,0.5763689 -0.889965,0 -1.614205,0.7757925 -1.614205,1.7291066 0,0.3181556 -0.2410546,0.5763689 -0.5380684,0.5763689 z M 5.2262577,3.8818444 C 5.4307237,4.0466859 5.6125908,4.2414986 5.7664783,4.4605187 5.9203659,4.2414986 6.102233,4.0466859 6.306699,3.8818444 6.102233,3.7170029 5.9203659,3.5221902 5.7664783,3.30317 5.6125908,3.5221902 5.4307237,3.7170029 5.2262577,3.8818444 Z"
       id="path10" />
    <path
       inkscape:connector-curvature="0"
       style="fill:#2a7fff;fill-opacity:1;opacity:0.7"
       d="m 5.7664783,18.291066 c -0.2970137,0 -0.5380683,-0.258213 -0.5380683,-0.576369 0,-0.953314 -0.72424,-1.729106 -1.614205,-1.729106 -0.2970137,0 -0.5380683,-0.258213 -0.5380683,-0.576369 0,-0.318156 0.2410546,-0.576369 0.5380683,-0.576369 0.889965,0 1.614205,-0.775792 1.614205,-1.729107 0,-0.318155 0.2410546,-0.576368 0.5380683,-0.576368 0.2970138,0 0.5380684,0.258213 0.5380684,0.576368 0,0.953315 0.72424,1.729107 1.614205,1.729107 0.2970137,0 0.5380683,0.258213 0.5380683,0.576369 0,0.318156 -0.2410546,0.576369 -0.5380683,0.576369 -0.889965,0 -1.614205,0.775792 -1.614205,1.729106 0,0.318156 -0.2410546,0.576369 -0.5380684,0.576369 z M 5.2262577,15.409222 c 0.204466,0.164841 0.3863331,0.359654 0.5402206,0.578674 C 5.9203659,15.768876 6.102233,15.574063 6.306699,15.409222 6.102233,15.24438 5.9203659,15.049568 5.7664783,14.830548 5.6125908,15.049568 5.4307237,15.24438 5.2262577,15.409222 Z"
       id="path12" />
  </g>
</svg>
